<svg xmlns="http://www.w3.org/2000/svg" width="80" height="56" viewBox="0 0 80 56">
  <g id="ico_80_SKL_off" transform="translate(0)">
    <path id="container" d="M.014,0H79.98V56H.014Z" transform="translate(0.021)" fill="red" opacity="0"/>
    <g id="icon" transform="translate(16.155 4)">
      <rect id="container-2" data-name="container" width="48" height="48" transform="translate(-0.155 0)" fill="none"/>
      <path id="패스_2149" data-name="패스 2149" d="M35.441,3.785H14.661l-2.93-1.89a.756.756,0,0,0-.93.09l-.2.19L8.591.215A.749.749,0,0,0,7.551.2L.231,7.155A.762.762,0,0,0,.191,8.2l1.88,2.08-.54.52a.746.746,0,0,0-.14.91l2.06,3.71a.555.555,0,0,0,.06.08v25.88a6.607,6.607,0,0,0,6.6,6.6h24.98a6.607,6.607,0,0,0,6.6-6.6V10.025a6.263,6.263,0,0,0-6.25-6.24M1.8,7.745l6.26-5.95L9.521,3.2l-6.36,6.05Zm1.18,3.75.66-.63,7.48-7.11.03-.03.26-.25,1.96,1.26-9.09,9.09Zm37.21,29.89a5.109,5.109,0,0,1-5.1,5.1H10.111a5.109,5.109,0,0,1-5.1-5.1V15.3l10.01-10.01h20.42a4.759,4.759,0,0,1,4.75,4.74Z" transform="translate(-0.155)" fill="#667c68"/>
      <path id="패스_2150" data-name="패스 2150" d="M34.131,8.845h-5.29a3.041,3.041,0,0,0-2.33,4.98l5.28,6.36a3.033,3.033,0,0,0,5.37-1.94v-6.36a3.043,3.043,0,0,0-3.03-3.04m1.53,9.4a1.539,1.539,0,0,1-1.53,1.54,1.57,1.57,0,0,1-1.19-.56l-5.28-6.36a1.541,1.541,0,0,1,1.18-2.52h5.29a1.539,1.539,0,0,1,1.53,1.54Zm-1.53-9.4h-5.29a3.041,3.041,0,0,0-2.33,4.98l5.28,6.36a3.033,3.033,0,0,0,5.37-1.94v-6.36a3.043,3.043,0,0,0-3.03-3.04m1.53,9.4a1.539,1.539,0,0,1-1.53,1.54,1.57,1.57,0,0,1-1.19-.56l-5.28-6.36a1.541,1.541,0,0,1,1.18-2.52h5.29a1.539,1.539,0,0,1,1.53,1.54Zm-1.53-9.4h-5.29a3.041,3.041,0,0,0-2.33,4.98l5.28,6.36a3.033,3.033,0,0,0,5.37-1.94v-6.36a3.043,3.043,0,0,0-3.03-3.04m1.53,9.4a1.539,1.539,0,0,1-1.53,1.54,1.57,1.57,0,0,1-1.19-.56l-5.28-6.36a1.541,1.541,0,0,1,1.18-2.52h5.29a1.539,1.539,0,0,1,1.53,1.54Zm-1.53-9.4h-5.29a3.041,3.041,0,0,0-2.33,4.98l5.28,6.36a3.033,3.033,0,0,0,5.37-1.94v-6.36a3.043,3.043,0,0,0-3.03-3.04m1.53,9.4a1.539,1.539,0,0,1-1.53,1.54,1.57,1.57,0,0,1-1.19-.56l-5.28-6.36a1.541,1.541,0,0,1,1.18-2.52h5.29a1.539,1.539,0,0,1,1.53,1.54Zm-1.53-9.4h-5.29a3.041,3.041,0,0,0-2.33,4.98l5.28,6.36a3.033,3.033,0,0,0,5.37-1.94v-6.36a3.043,3.043,0,0,0-3.03-3.04m1.53,9.4a1.539,1.539,0,0,1-1.53,1.54,1.57,1.57,0,0,1-1.19-.56l-5.28-6.36a1.541,1.541,0,0,1,1.18-2.52h5.29a1.539,1.539,0,0,1,1.53,1.54Zm-1.53-9.4h-5.29a3.041,3.041,0,0,0-2.33,4.98l5.28,6.36a3.033,3.033,0,0,0,5.37-1.94v-6.36a3.043,3.043,0,0,0-3.03-3.04m1.53,9.4a1.539,1.539,0,0,1-1.53,1.54,1.57,1.57,0,0,1-1.19-.56l-5.28-6.36a1.541,1.541,0,0,1,1.18-2.52h5.29a1.539,1.539,0,0,1,1.53,1.54Zm-1.53-9.4h-5.29a3.041,3.041,0,0,0-2.33,4.98l5.28,6.36a3.033,3.033,0,0,0,5.37-1.94v-6.36a3.043,3.043,0,0,0-3.03-3.04m1.53,9.4a1.539,1.539,0,0,1-1.53,1.54,1.57,1.57,0,0,1-1.19-.56l-5.28-6.36a1.541,1.541,0,0,1,1.18-2.52h5.29a1.539,1.539,0,0,1,1.53,1.54Z" transform="translate(-0.155)" fill="#667c68"/>
      <path id="패스_2151" data-name="패스 2151" d="M20.856,26.779l-4.16,5.15h4.16v1.35h-6.17v-1.14l4.14-5.18h-3.81v-1.35h5.84Z" transform="translate(-0.155)" fill="#667c68"/>
      <rect id="사각형_882" data-name="사각형 882" width="1.48" height="7.67" transform="translate(21.401 25.609)" fill="#667c68"/>
      <path id="패스_2152" data-name="패스 2152" d="M30.606,30.149l-.03.28a3.505,3.505,0,0,1-.9,2.04,3.5,3.5,0,0,1-4.7.18,4.219,4.219,0,0,1-1.19-3.28,4.233,4.233,0,0,1,.89-2.76,3.27,3.27,0,0,1,2.67-1.2,3.139,3.139,0,0,1,2.26.79,2.787,2.787,0,0,1,.9,1.79l.03.27h-1.42l-.05-.19a1.766,1.766,0,0,0-.55-.97,1.745,1.745,0,0,0-1.16-.34,1.822,1.822,0,0,0-1.49.66,3.178,3.178,0,0,0-.58,2.12,3.167,3.167,0,0,0,.53,1.9,1.768,1.768,0,0,0,1.52.68,1.57,1.57,0,0,0,1.4-.72,3.031,3.031,0,0,0,.4-1.05l.04-.2Z" transform="translate(-0.155)" fill="#667c68"/>
    </g>
  </g>
</svg>
