<svg xmlns="http://www.w3.org/2000/svg" width="80" height="56" viewBox="0 0 80 56">
  <g id="ico_80_SKGC_off" transform="translate(-0.969)">
    <path id="container" d="M.014,0h80V56h-80Z" transform="translate(0.955)" fill="red" opacity="0"/>
    <g id="icon" transform="translate(16.969 4)">
      <rect id="container-2" data-name="container" width="48" height="48" transform="translate(0 0)" fill="none"/>
      <path id="패스_2079" data-name="패스 2079" d="M21.82,18.315V8.775a2.113,2.113,0,0,0,2.11-2.12V5.565a2.11,2.11,0,0,0-2.11-2.11H10.91A2.117,2.117,0,0,0,8.8,5.565v1.09a2.119,2.119,0,0,0,2.11,2.12v9.54A16.371,16.371,0,0,0,8.2,47.935H24.53a16.369,16.369,0,0,0-2.71-29.62M10.3,6.655V5.565a.606.606,0,0,1,.61-.61H21.82a.606.606,0,0,1,.61.61v1.09a.615.615,0,0,1-.61.62H10.91a.615.615,0,0,1-.61-.62m13.78,39.64H8.65a14.68,14.68,0,0,1-6.18-7.65,14.511,14.511,0,0,1-.84-5.12c2.23-.62,9.27-2.12,15.18,1.54a12.673,12.673,0,0,0,6.76,1.96,15.792,15.792,0,0,0,7.47-2.05,14.679,14.679,0,0,1-6.96,11.32M17.6,33.785c-6.06-3.75-12.97-2.59-15.85-1.86a14.692,14.692,0,0,1,9.71-12.06,1.652,1.652,0,0,0,1.09-1.55V8.775h7.63v9.54a1.643,1.643,0,0,0,1.09,1.55,14.728,14.728,0,0,1,9.81,13.32c-1.37.94-7.25,4.46-13.48.6" transform="translate(0 0)" fill="#667c68"/>
      <path id="패스_2080" data-name="패스 2080" d="M34.911,6.409a3.2,3.2,0,1,1,3.2-3.2,3.207,3.207,0,0,1-3.2,3.2m0-4.909a1.7,1.7,0,1,0,1.7,1.7,1.706,1.706,0,0,0-1.7-1.7" transform="translate(0 0)" fill="#667c68"/>
      <path id="패스_2081" data-name="패스 2081" d="M28.911,12.955A2.659,2.659,0,1,1,31.57,10.3a2.662,2.662,0,0,1-2.659,2.659m0-3.818A1.159,1.159,0,1,0,30.07,10.3a1.16,1.16,0,0,0-1.159-1.159" transform="translate(0 0)" fill="#667c68"/>
      <path id="패스_2082" data-name="패스 2082" d="M11.457,29.318a2.659,2.659,0,1,1,2.659-2.659,2.662,2.662,0,0,1-2.659,2.659m0-3.818a1.159,1.159,0,1,0,1.159,1.159A1.16,1.16,0,0,0,11.457,25.5" transform="translate(0 0)" fill="#667c68"/>
      <path id="패스_2083" data-name="패스 2083" d="M36.07,7.815v34.12a5.93,5.93,0,1,0,11.86,0V7.815Zm10.36,34.12a4.43,4.43,0,1,1-8.86,0V9.315h8.86V15.8H42.59v1.55h3.84V20.7H42.59v1.54h3.84v3.37H42.59v1.54h3.84Z" transform="translate(0 0)" fill="#667c68"/>
    </g>
  </g>
</svg>
