<svg id="ico_80_SKE_on" xmlns="http://www.w3.org/2000/svg" xmlns:xlink="http://www.w3.org/1999/xlink" width="72" height="50" viewBox="0 0 72 50">
  <defs>
    <clipPath id="clip-path">
      <rect id="mask" width="72" height="44" fill="red" opacity="0.1"/>
    </clipPath>
    <clipPath id="clip-path-2">
      <circle id="타원_15" data-name="타원 15" cx="7.17" cy="7.17" r="7.17" fill="#eeca1a"/>
    </clipPath>
  </defs>
  <rect id="container" width="72" height="50" fill="none" opacity="0.1"/>
  <g id="꾸밈요소" transform="translate(0 0)" clip-path="url(#clip-path)">
    <circle id="타원_14" data-name="타원 14" cx="10.755" cy="10.755" r="10.755" transform="translate(2.472 22.099)" fill="#d1ad1c" opacity="0.2"/>
    <circle id="타원_16" data-name="타원 16" cx="5.5" cy="5.5" r="5.5" transform="translate(0 18)" fill="#e3913f" opacity="0.2"/>
    <g id="마스크_그룹_1" data-name="마스크 그룹 1" transform="translate(65.506 26.311) rotate(45)" clip-path="url(#clip-path-2)">
      <g id="합치기_4" data-name="합치기 4" transform="translate(0 -1.793)" fill="#fff">
        <path d="M16.133,17.029V0h.9V17.029Zm-2.689,0V0h.9V17.029Zm-2.689,0V0h.9V17.029Zm-2.689,0V0h.9V17.029Zm-2.689,0V0h.9V17.029Zm-2.689,0V0h.9V17.029ZM0,17.029V0H.9V17.029Z" stroke="none"/>
        <path d="M 17.02887916564941 17.02887535095215 L 16.13269996643066 17.02887535095215 L 16.13269996643066 -4.231872480886523e-06 L 17.02887916564941 -4.231872480886523e-06 L 17.02887916564941 17.02887535095215 Z M 14.34036922454834 17.02887535095215 L 13.44339942932129 17.02887535095215 L 13.44339942932129 -4.231872480886523e-06 L 14.34036922454834 -4.231872480886523e-06 L 14.34036922454834 17.02887535095215 Z M 11.65103912353516 17.02887535095215 L 10.75488948822021 17.02887535095215 L 10.75488948822021 -4.231872480886523e-06 L 11.65103912353516 -4.231872480886523e-06 L 11.65103912353516 17.02887535095215 Z M 8.962529182434082 17.02887535095215 L 8.066349983215332 17.02887535095215 L 8.066349983215332 -4.231872480886523e-06 L 8.962529182434082 -4.231872480886523e-06 L 8.962529182434082 17.02887535095215 Z M 6.274019718170166 17.02887535095215 L 5.377049446105957 17.02887535095215 L 5.377049446105957 -4.231872480886523e-06 L 6.274019718170166 -4.231872480886523e-06 L 6.274019718170166 17.02887535095215 Z M 3.584689617156982 17.02887535095215 L 2.688539505004883 17.02887535095215 L 2.688539505004883 -4.231872480886523e-06 L 3.584689617156982 -4.231872480886523e-06 L 3.584689617156982 17.02887535095215 Z M 0.8961795568466187 17.02887535095215 L -4.17175300526651e-07 17.02887535095215 L -4.17175300526651e-07 -4.231872480886523e-06 L 0.8961795568466187 -4.231872480886523e-06 L 0.8961795568466187 17.02887535095215 Z" stroke="none" fill="#f2df64"/>
      </g>
    </g>
  </g>
  <path id="container-2" data-name="container" d="M0,0H43V43.021H0Z" transform="translate(15.323 4.174)" fill="none" opacity="0.19"/>
  <g id="icon" transform="translate(17.67 4.174)">
    <path id="패스_1824" data-name="패스 1824" d="M41.574,11.229V33.008a2.967,2.967,0,1,1-5.933,0v-19.6a1.62,1.62,0,0,0-1.613-1.622h-1.6a.672.672,0,0,1,0-1.344h1.6a2.968,2.968,0,0,1,2.958,2.967v19.6a1.622,1.622,0,1,0,3.244,0V12.941a1.932,1.932,0,0,0,1.344-1.712" transform="translate(-3.295 -1.083)" fill="#667c68"/>
    <path id="패스_1825" data-name="패스 1825" d="M32.432,10.44a.672.672,0,0,0,0,1.344h.179V10.44Z" transform="translate(-3.295 -1.083)" fill="#667c68"/>
    <path id="패스_1826" data-name="패스 1826" d="M29.419,9.357H29.6V5.817A5.822,5.822,0,0,0,23.781,0H8.527A5.822,5.822,0,0,0,2.71,5.817V38.091H29.6V10.7h-.179a.672.672,0,0,1,0-1.344M16.6,33.386a6.05,6.05,0,1,1,6.05-6.05,6.059,6.059,0,0,1-6.05,6.05m9.411-20.838A1.792,1.792,0,0,1,24.22,14.34H8.088A1.792,1.792,0,0,1,6.3,12.548V8.066A1.8,1.8,0,0,1,8.088,6.274H24.22a1.8,1.8,0,0,1,1.793,1.793Z" transform="translate(-0.281)" fill="#bac8a6"/>
    <path id="패스_1827" data-name="패스 1827" d="M24.635,7H8.5A1.8,1.8,0,0,0,6.71,8.793v4.481A1.792,1.792,0,0,0,8.5,15.066H24.635a1.792,1.792,0,0,0,1.793-1.793V8.793A1.8,1.8,0,0,0,24.635,7M10.519,11.705H9.175a.672.672,0,0,1,0-1.344h1.344a.672.672,0,0,1,0,1.344m4.481,0H13.656a.672.672,0,0,1,0-1.344H15a.672.672,0,0,1,0,1.344m4.481,0H18.137a.672.672,0,0,1,0-1.344h1.344a.672.672,0,1,1,0,1.344m4.481,0H22.619a.672.672,0,0,1,0-1.344h1.344a.672.672,0,0,1,0,1.344" transform="translate(-0.696 -0.726)" fill="#39393a"/>
    <path id="패스_1828" data-name="패스 1828" d="M23.56,29.8a6.05,6.05,0,1,1-6.05-6.05,6.059,6.059,0,0,1,6.05,6.05" transform="translate(-1.189 -2.464)" fill="#39393a"/>
    <path id="패스_1829" data-name="패스 1829" d="M31.746,44.965a2.461,2.461,0,0,1-2.456,2.465H2.465A2.465,2.465,0,0,1,2.429,42.5H29.317a2.468,2.468,0,0,1,2.429,2.465" transform="translate(0 -4.409)" fill="#667c68"/>
    <path id="패스_1830" data-name="패스 1830" d="M16.4,11.422a.671.671,0,0,1-.672.672H14.382a.672.672,0,0,1,0-1.344h1.344a.677.677,0,0,1,.672.672" transform="translate(-1.422 -1.115)" fill="#667c68"/>
    <path id="패스_1831" data-name="패스 1831" d="M21.4,11.422a.671.671,0,0,1-.672.672H19.382a.672.672,0,0,1,0-1.344h1.344a.677.677,0,0,1,.672.672" transform="translate(-1.941 -1.115)" fill="#667c68"/>
    <path id="패스_1832" data-name="패스 1832" d="M42.26,10.483a1.932,1.932,0,0,1-1.344,1.712.518.518,0,0,1-.125.045,2.16,2.16,0,0,1-.475.063,1.959,1.959,0,0,1-1.891-1.47,1.933,1.933,0,0,1-.054-.457V3.922a.666.666,0,0,1,.672-.672h1.7a.675.675,0,0,1,.663.583l.807,6.121a1.5,1.5,0,0,1,.045.529" transform="translate(-3.98 -0.337)" fill="#bac8a6"/>
    <path id="패스_1833" data-name="패스 1833" d="M26.4,11.422a.671.671,0,0,1-.672.672H24.382a.672.672,0,0,1,0-1.344h1.344a.677.677,0,0,1,.672.672" transform="translate(-2.46 -1.115)" fill="#667c68"/>
    <path id="패스_1834" data-name="패스 1834" d="M11.4,11.422a.671.671,0,0,1-.672.672H9.382a.672.672,0,0,1,0-1.344h1.344a.677.677,0,0,1,.672.672" transform="translate(-0.904 -1.115)" fill="#667c68"/>
    <path id="패스_1835" data-name="패스 1835" d="M20.129,30.728a2.172,2.172,0,0,1-4.34,0c0-1.146,2.17-3.711,2.17-3.711s2.17,2.565,2.17,3.711" transform="translate(-1.638 -2.803)" fill="#667c68"/>
    <rect id="사각형_827" data-name="사각형 827" width="38.286" height="43.021" fill="none"/>
  </g>
</svg>
