<svg xmlns="http://www.w3.org/2000/svg" width="30" height="30" viewBox="0 0 30 30"><rect width="30" height="30" fill="none"/><path d="M258.057,41.386c.036,0,.072,0,.108,0h2.013c.036,0,.072,0,.109,0s.073,0,.109,0a2.085,2.085,0,0,1,.02.335V43.6a.85.85,0,0,0,.646.825,8.113,8.113,0,0,1,2.436,1.046.851.851,0,0,0,.459.135c.03,0,.061,0,.091-.005a.85.85,0,0,0,.51-.243L265.9,44.01a1.775,1.775,0,0,1,.255-.219,1.458,1.458,0,0,1,.162.142l1.417,1.418a1.631,1.631,0,0,1,.142.158,2.054,2.054,0,0,1-.221.253l-1.418,1.417a.853.853,0,0,0-.136,1.03,8.06,8.06,0,0,1,.851,2.1.85.85,0,0,0,.825.647h1.984c.037,0,.073,0,.109,0s.073,0,.11,0a2.067,2.067,0,0,1,.022.334v1.826a1.881,1.881,0,0,1-.022.335q-.054,0-.108,0t-.108,0h-1.984a.849.849,0,0,0-.825.649,7.974,7.974,0,0,1-1.055,2.444.852.852,0,0,0,.113,1.063l1.5,1.5a1.889,1.889,0,0,1,.221.252,1.553,1.553,0,0,1-.133.159l-1.418,1.417a1.5,1.5,0,0,1-.164.145,1.834,1.834,0,0,1-.255-.218l-1.565-1.56a.854.854,0,0,0-1.027-.136,8.08,8.08,0,0,1-2.106.851.853.853,0,0,0-.647.825v1.871a1.878,1.878,0,0,1-.022.335c-.036,0-.073,0-.109,0s-.073,0-.109,0h-2.019c-.036,0-.073,0-.109,0s-.073,0-.109,0a1.824,1.824,0,0,1-.023-.338V60.842a.85.85,0,0,0-.647-.825,8.175,8.175,0,0,1-2.106-.85.84.84,0,0,0-.423-.113.874.874,0,0,0-.114.008.849.849,0,0,0-.489.243l-1.529,1.534a1.752,1.752,0,0,1-.252.219,1.646,1.646,0,0,1-.164-.148l-1.418-1.417a1.634,1.634,0,0,1-.147-.165,1.89,1.89,0,0,1,.221-.252l1.457-1.463a.848.848,0,0,0,.113-1.058,8.15,8.15,0,0,1-1.046-2.438.85.85,0,0,0-.825-.646h-1.984l-.109,0c-.037,0-.073,0-.11,0a1.883,1.883,0,0,1-.025-.352v-1.8a1.794,1.794,0,0,1,.025-.335c.036,0,.072,0,.108,0s.072,0,.108,0h1.984a.85.85,0,0,0,.826-.646,8.288,8.288,0,0,1,.85-2.11.848.848,0,0,0-.139-1.02l-1.418-1.418a2.077,2.077,0,0,1-.223-.255,1.61,1.61,0,0,1,.147-.193l1.418-1.417a1.352,1.352,0,0,1,.161-.142,1.679,1.679,0,0,1,.255.221l1.356,1.349a.847.847,0,0,0,.508.243c.031,0,.061.005.091.005a.847.847,0,0,0,.458-.134,8.142,8.142,0,0,1,2.438-1.049.85.85,0,0,0,.647-.825V41.725a1.792,1.792,0,0,1,.025-.335c.036,0,.072,0,.108,0m0-2c-.086,0-.172,0-.257.01a2,2,0,0,0-1.821,1.652,3.728,3.728,0,0,0-.055.715v.974a10.193,10.193,0,0,0-1.355.581l-.716-.713a3.746,3.746,0,0,0-.525-.45,2,2,0,0,0-2.356.03,3.327,3.327,0,0,0-.39.342l-1.4,1.4c-.028.028-.055.056-.081.085a3.606,3.606,0,0,0-.331.434,2,2,0,0,0,.071,2.277,3.986,3.986,0,0,0,.442.5l.8.8q-.216.466-.386.955h-1.068c-.056,0-.112,0-.168,0-.087,0-.174,0-.261.01a2,2,0,0,0-1.816,1.648,3.724,3.724,0,0,0-.056.723v1.755a3.766,3.766,0,0,0,.053.685,2,2,0,0,0,1.837,1.662c.081.006.163.008.245.008.054,0,.109,0,.163,0h1.071a10.1,10.1,0,0,0,.579,1.354l-.836.839a3.744,3.744,0,0,0-.419.484,2,2,0,0,0,.04,2.413,3.654,3.654,0,0,0,.327.365l1.4,1.4a3.333,3.333,0,0,0,.355.316,2,2,0,0,0,2.39.042,3.858,3.858,0,0,0,.526-.455l.911-.914a9.79,9.79,0,0,0,.956.386v1.014a3.749,3.749,0,0,0,.047.65,2,2,0,0,0,1.84,1.683c.081.006.163.008.245.008.054,0,.109,0,.163,0h1.909c.055,0,.11,0,.165,0q.124,0,.249-.009a2,2,0,0,0,1.835-1.684,3.862,3.862,0,0,0,.047-.688V61.7q.49-.171.962-.389l.971.968a3.825,3.825,0,0,0,.51.433,2,2,0,0,0,2.369-.041,3.62,3.62,0,0,0,.377-.332l1.407-1.407a3.73,3.73,0,0,0,.332-.39,2,2,0,0,0,0-2.363,3.913,3.913,0,0,0-.453-.517l-.843-.843a10.012,10.012,0,0,0,.588-1.368h1.068l.163,0c.082,0,.164,0,.245-.008a2,2,0,0,0,1.838-1.681,3.889,3.889,0,0,0,.047-.691V51.293a3.969,3.969,0,0,0-.045-.635,2,2,0,0,0-1.842-1.695c-.081-.005-.163-.008-.245-.008-.054,0-.109,0-.163,0h-1.073a10.212,10.212,0,0,0-.388-.959l.823-.824a3.882,3.882,0,0,0,.415-.477,2,2,0,0,0-.029-2.417,3.539,3.539,0,0,0-.326-.365l-1.4-1.4a3.245,3.245,0,0,0-.378-.329,2,2,0,0,0-2.344-.038,3.786,3.786,0,0,0-.553.473l-.69.691a10,10,0,0,0-1.352-.579V41.725a3.929,3.929,0,0,0-.04-.618,2,2,0,0,0-1.844-1.712c-.082-.006-.163-.009-.245-.009-.055,0-.109,0-.164,0h-1.9c-.056,0-.111,0-.167,0" transform="translate(-244.322 -37.386)" fill="#fff"/><path d="M259.164,57.051a4.83,4.83,0,1,1,4.831-4.831,4.836,4.836,0,0,1-4.831,4.831m0-7.661a2.83,2.83,0,1,0,2.831,2.83,2.833,2.833,0,0,0-2.831-2.83" transform="translate(-244.322 -37.386)" fill="#fff"/></svg>