<svg xmlns="http://www.w3.org/2000/svg" xmlns:xlink="http://www.w3.org/1999/xlink" width="80" height="56" viewBox="0 0 80 56">
  <defs>
    <clipPath id="clip-path">
      <rect id="사각형_850" data-name="사각형 850" width="48" height="48" fill="none"/>
    </clipPath>
  </defs>
  <g id="ico_80_SKEO_off" transform="translate(-32)">
    <rect id="container" width="80" height="56" transform="translate(32)" fill="none" opacity="0.1"/>
    <g id="icon" transform="translate(48 4)">
      <path id="패스_2008" data-name="패스 2008" d="M40.668,28.836V44.393H39V29.958Z" transform="translate(1.515 2.003)" fill="#667c68"/>
      <g id="그룹_1049" data-name="그룹 1049" transform="translate(0 0)">
        <g id="그룹_1048" data-name="그룹 1048" clip-path="url(#clip-path)">
          <path id="패스_2009" data-name="패스 2009" d="M47.217,46.4H31.93L26.87,23.586v-2l7.409,4.363-.991,1.743a.835.835,0,0,0-.083.61.792.792,0,0,0,.365.492l5.9,3.475a.7.7,0,0,0,.386.107.737.737,0,0,0,.438-.139l.407-.278,1.628-1.123,3.183-2.2a.749.749,0,0,0,.334-.6l.5-6.384a.8.8,0,0,0-.386-.759l-5.9-3.475a.783.783,0,0,0-1.064.289l-.5.877L7.93.573a4.157,4.157,0,0,0-5.718,1.54,4.306,4.306,0,0,0-.428,3.23,4.2,4.2,0,0,0,1.951,2.6L5.019,8.7H4.957V38.91h-.8A2.888,2.888,0,0,0,1.3,41.83V46.4H.783a.8.8,0,0,0,0,1.6H47.217a.8.8,0,0,0,0-1.6M27.809,35,22.5,29.553l3.35-3.433Zm-10.445-10.7.177.182h7.7l.2-.2.042.2h-.24l-3.85,3.946-3.85-3.946h-.219Zm2.922,5.261-5.29,5.422,1.951-8.844Zm1.106,1.134,5.927,6.074L21.61,40.418,15.5,36.729ZM25.3,22.87H17.457l.021-6.823L25.3,20.656Zm14.15-2.791.5-.877,4.79,2.823-.428,5.5-4.5,3.112L35.03,27.81l.981-1.722s.021-.011.021-.021ZM4.518,6.551A2.625,2.625,0,0,1,3.3,4.936a2.653,2.653,0,0,1,.271-2.01,2.6,2.6,0,0,1,3.59-.962L37.7,19.972l-2.63,4.6ZM8.609,46.4H2.87V41.83a1.3,1.3,0,0,1,1.283-1.315H7.325A1.3,1.3,0,0,1,8.609,41.83Zm1.565,0V41.83A2.9,2.9,0,0,0,7.325,38.91h-.8V9.588l9.391,5.529v8.469L10.852,46.4Zm4.163-8.48v-.011h.01l5.76,3.475L12.49,46.268Zm.908,8.48,6.4-4.1,6.783,4.1Zm7.9-5.058,5.311-3.4,1.69,7.625Z" transform="translate(0 0)" fill="#657b67"/>
          <path id="패스_2010" data-name="패스 2010" d="M16.819,22.9H16.6l.042-.182Z" transform="translate(0.722 1.576)" fill="#657b67"/>
          <path id="패스_2011" data-name="패스 2011" d="M24.43,22.9h-.24l.2-.2Z" transform="translate(1.052 1.575)" fill="#657b67"/>
          <path id="패스_2012" data-name="패스 2012" d="M13.75,35.446l-.01.011v-.011Z" transform="translate(0.597 2.459)" fill="#657b67"/>
          <path id="패스_2013" data-name="패스 2013" d="M24.43,22.9h-.24l.2-.2Z" transform="translate(1.052 1.575)" fill="#657b67"/>
          <path id="패스_2014" data-name="패스 2014" d="M16.819,22.9H16.6l.042-.182Z" transform="translate(0.722 1.576)" fill="#657b67"/>
        </g>
      </g>
    </g>
  </g>
</svg>
