<svg xmlns="http://www.w3.org/2000/svg" xmlns:xlink="http://www.w3.org/1999/xlink" width="80" height="56" viewBox="0 0 80 56">
  <defs>
    <clipPath id="clip-path">
      <rect id="mask" width="80" height="48" fill="red" opacity="0.1"/>
    </clipPath>
    <clipPath id="clip-path-2">
      <circle id="타원_15" data-name="타원 15" cx="8" cy="8" r="8" fill="#eeca1a"/>
    </clipPath>
  </defs>
  <g id="ico_80_SKO_on" transform="translate(12 4)">
    <rect id="container" width="80" height="56" transform="translate(-12 -4)" fill="none" opacity="0.1"/>
    <g id="꾸밈요소" transform="translate(-12 -4)" clip-path="url(#clip-path)">
      <circle id="타원_14" data-name="타원 14" cx="12" cy="12" r="12" transform="translate(1.684 24)" fill="#d1ad1c" opacity="0.2"/>
      <circle id="타원_16" data-name="타원 16" cx="6" cy="6" r="6" transform="translate(0 20)" fill="#e3913f" opacity="0.2"/>
      <g id="마스크_그룹_1" data-name="마스크 그룹 1" transform="translate(72.014 28.7) rotate(45)" clip-path="url(#clip-path-2)">
        <g id="합치기_4" data-name="합치기 4" transform="translate(0 -2)">
          <path id="패스_1858" data-name="패스 1858" d="M15.5,18.5h0V.5h0Zm-9,0h0V.5h0Z" fill="#fff"/>
          <path id="패스_1859" data-name="패스 1859" d="M19,19H18V0h1Zm-3,0H15V0h1Zm-3,0H12V0h1Zm-3,0H9V0h1ZM7,19H6V0H7ZM4,19H3V0H4ZM1,19H0V0H1Z" fill="#f2df64"/>
        </g>
      </g>
    </g>
    <g id="icon" transform="translate(4 0)">
      <rect id="container-2" data-name="container" width="48" height="48" transform="translate(0 0)" fill="none"/>
      <path id="패스_2095" data-name="패스 2095" d="M2,16V40.63C2,43.59,4.69,46,8,46H40c3.31,0,6-2.41,6-5.37V16Z" transform="translate(0 1)" fill="#bac8a6"/>
      <rect id="사각형_866" data-name="사각형 866" width="6" height="2" transform="translate(8.001 30.17)" fill="#667c68"/>
      <path id="패스_2096" data-name="패스 2096" d="M40,29.174v2H38v2H36v-2H34v-2h2v-2h2v2Z" transform="translate(0 1)" fill="#667c68"/>
      <path id="패스_2097" data-name="패스 2097" d="M26.147,30.17h0a.771.771,0,0,1-.778-.762.785.785,0,0,1,.014-.153l.817-4.067a.649.649,0,0,0-1.131-.541L21.3,28.986a.717.717,0,0,0,.553,1.184.769.769,0,0,1,.777.761.724.724,0,0,1-.014.154L21.8,35.152a.649.649,0,0,0,1.131.541L26.7,31.354a.717.717,0,0,0-.553-1.184" transform="translate(0 1)" fill="#667c68"/>
      <path id="패스_2098" data-name="패스 2098" d="M48,10v4a2.006,2.006,0,0,1-2,2H2a2.006,2.006,0,0,1-2-2V10A2,2,0,0,1,2,8H6V5.99A3,3,0,0,1,9,3h1.25V0h1.5V3H13a3,3,0,0,1,3,2.99V8H32V5.99A3,3,0,0,1,35,3h1.25V0h1.5V3H39a3,3,0,0,1,3,2.99V8h4a2,2,0,0,1,2,2" transform="translate(0 1)" fill="#667c68"/>
    </g>
  </g>
</svg>
