<svg xmlns="http://www.w3.org/2000/svg" xmlns:xlink="http://www.w3.org/1999/xlink" width="72" height="50" viewBox="0 0 72 50">
  <defs>
    <clipPath id="clip-path">
      <rect id="사각형_868" data-name="사각형 868" width="35.294" height="42.124" fill="none"/>
    </clipPath>
  </defs>
  <g id="ico_80_SKIC_off" transform="translate(0 -0.056)">
    <path id="container" d="M.014,0h72V50h-72Z" transform="translate(-0.014 0.056)" fill="red" opacity="0"/>
    <g id="icon" transform="translate(18.188 4.033)">
      <g id="그룹_1073" data-name="그룹 1073" clip-path="url(#clip-path)">
        <path id="패스_2099" data-name="패스 2099" d="M35.293,3.391V2.554A2.556,2.556,0,0,0,32.74,0H2.545A2.549,2.549,0,0,0,0,2.554v.837A2.547,2.547,0,0,0,2.545,5.937V36.188A2.547,2.547,0,0,0,0,38.734v.845a2.547,2.547,0,0,0,2.545,2.546H32.74a2.554,2.554,0,0,0,2.553-2.546v-.845a2.553,2.553,0,0,0-2.553-2.545V5.937a2.553,2.553,0,0,0,2.553-2.545M33.972,38.734v.845A1.235,1.235,0,0,1,32.74,40.8H2.545a1.227,1.227,0,0,1-1.224-1.224v-.845a1.227,1.227,0,0,1,1.224-1.224H32.74a1.235,1.235,0,0,1,1.232,1.224M3.8,36.188V5.937H31.488V36.188ZM2.545,4.616A1.221,1.221,0,0,1,1.321,3.391V2.554A1.229,1.229,0,0,1,2.545,1.322H32.74a1.236,1.236,0,0,1,1.232,1.232v.837A1.229,1.229,0,0,1,32.74,4.616Z" transform="translate(0 0)" fill="#fff"/>
        <path id="패스_2100" data-name="패스 2100" d="M22.561,24.486a3.264,3.264,0,0,1-6.516,0C16.045,22.792,19.3,19,19.3,19s3.262,3.791,3.262,5.485" transform="translate(-1.664 -1.971)" fill="#fff"/>
      </g>
    </g>
  </g>
</svg>
