<svg xmlns="http://www.w3.org/2000/svg" width="80" height="56" viewBox="0 0 80 56">
  <g id="ico_80_SKIET_off" transform="translate(-32)">
    <rect id="area" width="80" height="56" transform="translate(32)" fill="#fff" opacity="0"/>
    <g id="icon" transform="translate(47 5)">
      <rect id="container" width="48" height="48" transform="translate(1 -1)" fill="none" opacity="0.12"/>
      <g id="그룹_1267" data-name="그룹 1267" transform="translate(1 -2.013)">
        <path id="패스_2619" data-name="패스 2619" d="M30.5,48.764H.25V21.55h1.5V47.264H29V38.847h1.5Z" fill="#667c68"/>
        <path id="선_162" data-name="선 162" d="M18.475.75H0V-.75H18.475Z" transform="translate(9.833 7.524)" fill="#667c68"/>
        <path id="패스_2620" data-name="패스 2620" d="M37.336,39.251H9.833v-1.5h27.5c1.849,0,3.628-1.467,5.009-4.131a23.579,23.579,0,0,0,2.266-10.607,30.515,30.515,0,0,0-.181-3.244l-.035-.31-.06-.366,1.48-.242.068.423.038.338a31.962,31.962,0,0,1,.189,3.4,25.09,25.09,0,0,1-2.435,11.3C42.025,37.5,39.774,39.251,37.336,39.251Z" fill="#667c68"/>
        <path id="타원_158" data-name="타원 158" d="M9.074-.75c2.7,0,5.209,1.743,7.063,4.907A22.761,22.761,0,0,1,18.9,15.488a22.761,22.761,0,0,1-2.761,11.331c-1.854,3.164-4.362,4.907-7.063,4.907s-5.209-1.743-7.063-4.907A22.761,22.761,0,0,1-.75,15.488,22.761,22.761,0,0,1,2.011,4.157C3.865.993,6.373-.75,9.074-.75Zm0,30.976c2.147,0,4.2-1.479,5.769-4.165A21.251,21.251,0,0,0,17.4,15.488,21.251,21.251,0,0,0,14.843,4.915C13.269,2.229,11.221.75,9.074.75S4.879,2.229,3.3,4.915A21.251,21.251,0,0,0,.75,15.488,21.251,21.251,0,0,0,3.3,26.061C4.879,28.747,6.927,30.226,9.074,30.226Z" transform="translate(1 7.525)" fill="#667c68"/>
        <path id="패스_2621" data-name="패스 2621" d="M10.074,15.863c1.156,0,2.2.813,2.939,2.288a11.093,11.093,0,0,1,1.02,4.862,11.093,11.093,0,0,1-1.02,4.862c-.74,1.476-1.784,2.288-2.939,2.288s-2.2-.813-2.94-2.288a11.092,11.092,0,0,1-1.02-4.862,11.092,11.092,0,0,1,1.02-4.862C7.874,16.676,8.918,15.863,10.074,15.863Zm0,12.8c.55,0,1.133-.532,1.6-1.461a9.582,9.582,0,0,0,.86-4.189,9.582,9.582,0,0,0-.86-4.189c-.465-.928-1.048-1.461-1.6-1.461s-1.134.532-1.6,1.461a9.58,9.58,0,0,0-.861,4.189A9.58,9.58,0,0,0,8.475,27.2C8.94,28.131,9.523,28.663,10.074,28.663Z" fill="#667c68"/>
        <path id="패스_2622" data-name="패스 2622" d="M45.647,17.336H41.371A12.846,12.846,0,0,1,29.67,9.7a11.881,11.881,0,0,1-.664-1.912,12.893,12.893,0,0,1-.45-3.251V.25h4.288a12.8,12.8,0,0,1,12.8,12.8ZM30.057,4.522a11.391,11.391,0,0,0,.4,2.875l0,.013a10.383,10.383,0,0,0,.582,1.677,11.344,11.344,0,0,0,10.332,6.748h2.774V13.051a11.316,11.316,0,0,0-11.3-11.3H30.057Z" transform="translate(-1 1)" fill="#667c68"/>
        <path id="선_163" data-name="선 163" d="M11.547,12.3a.748.748,0,0,1-.53-.22L-.53.53A.75.75,0,0,1-.53-.53.75.75,0,0,1,.53-.53L12.077,11.017a.75.75,0,0,1-.53,1.28Z" transform="translate(35.453 9.129)" fill="#667c68"/>
      </g>
    </g>
  </g>
</svg>
