<svg xmlns="http://www.w3.org/2000/svg" width="72" height="50" viewBox="0 0 72 50">
  <g id="ico_80_SKEO_off" transform="translate(-9 -0.017)">
    <rect id="area" width="72" height="50" transform="translate(9 0.017)" fill="#fff" opacity="0"/>
    <rect id="container" width="72" height="50" transform="translate(9 0.017)" fill="none" opacity="0.1"/>
    <g id="icon" transform="translate(22.463 3.135)">
      <path id="패스_1897" data-name="패스 1897" d="M44.493,16.705l-2.419-2.419V11.044A11.043,11.043,0,0,0,31.03,0H26.774V4.246a11.725,11.725,0,0,0,.287,2.448H8.118a4.031,4.031,0,0,0-.469.038C3.328,7.143,0,13.052,0,20.559c0,.067.01.124.01.2v.01c-.01.01-.01.01-.01.019V42.3a.716.716,0,0,0,.717.717H25.1a.71.71,0,0,0,.717-.717V34.424h8.29c4.4,0,7.965-6.206,7.965-13.865a21.857,21.857,0,0,0-.488-4.733l1.893,1.893a.716.716,0,0,0,1.014,0,.721.721,0,0,0,0-1.014M1.453,20.081c.134-6.235,2.869-11.446,6.2-11.915a4.192,4.192,0,0,1,.478-.038,3.218,3.218,0,0,1,.956.143c3.117.87,5.6,5.881,5.728,11.809,0,.153.019.316.019.478h-.01c0,.316-.01.641-.019.956C14.554,27.233,12.115,32,9.084,32.837a3.569,3.569,0,0,1-.956.153,4.259,4.259,0,0,1-.478-.048c-3.242-.449-5.929-5.412-6.187-11.427-.01-.316-.029-.641-.029-.956,0-.163.01-.325.019-.478M24.384,41.6H1.434V28.515C2.811,31.9,5.049,34.147,7.65,34.4a4.131,4.131,0,0,0,.478.029H24.384ZM38.5,29.643c-1.234,2.161-2.792,3.347-4.389,3.347H11.781c2.515-2.113,4.255-6.378,4.456-11.475.01-.325.029-.641.029-.956,0-.163-.019-.325-.019-.478-.105-5.307-1.874-9.763-4.466-11.953H27.491A11.072,11.072,0,0,0,37.828,15.3H40a18.4,18.4,0,0,1,.641,5.259A18.443,18.443,0,0,1,38.5,29.643M40.64,12.852,33.018,5.231A.717.717,0,0,0,32,6.244l7.621,7.621h-1.8a9.634,9.634,0,0,1-8.788-5.737,8.788,8.788,0,0,1-.5-1.434,9.682,9.682,0,0,1-.335-2.448V1.434H31.03a9.611,9.611,0,0,1,9.61,9.61Z" transform="translate(0 0)" fill="#fff"/>
      <path id="패스_1898" data-name="패스 1898" d="M9.3,16.775A1.892,1.892,0,0,0,7.869,16C6.291,16,5,18.563,5,21.737s1.291,5.737,2.869,5.737A1.952,1.952,0,0,0,9.3,26.7a7.871,7.871,0,0,0,1.434-4.963A7.854,7.854,0,0,0,9.3,16.775m0,5.154a7.776,7.776,0,0,1-.688,3.222c-.363.736-.688.889-.746.889-.076,0-.411-.22-.746-.889h.01a7.916,7.916,0,0,1-.7-3.414,8.122,8.122,0,0,1,.688-3.423c.335-.669.669-.88.746-.88.057,0,.382.153.746.88A7.852,7.852,0,0,1,9.3,21.546Z" transform="translate(-0.218 -0.7)" fill="#fff"/>
    </g>
  </g>
</svg>
