<svg xmlns="http://www.w3.org/2000/svg" xmlns:xlink="http://www.w3.org/1999/xlink" width="80" height="56" viewBox="0 0 80 56">
  <defs>
    <clipPath id="clip-path">
      <rect id="mask" width="80" height="48" fill="red" opacity="0.1"/>
    </clipPath>
    <clipPath id="clip-path-2">
      <circle id="타원_15" data-name="타원 15" cx="8" cy="8" r="8" fill="#eeca1a"/>
    </clipPath>
  </defs>
  <g id="ico_80_SKEO_on" transform="translate(12 4)">
    <rect id="container" width="80" height="56" transform="translate(-12 -4)" fill="none" opacity="0.1"/>
    <g id="꾸밈요소" transform="translate(-12 -4)" clip-path="url(#clip-path)">
      <circle id="타원_14" data-name="타원 14" cx="12" cy="12" r="12" transform="translate(1.684 24)" fill="#d1ad1c" opacity="0.2"/>
      <circle id="타원_16" data-name="타원 16" cx="6" cy="6" r="6" transform="translate(0 20)" fill="#e3913f" opacity="0.2"/>
      <g id="마스크_그룹_1" data-name="마스크 그룹 1" transform="translate(72.014 28.7) rotate(45)" clip-path="url(#clip-path-2)">
        <g id="합치기_4" data-name="합치기 4" transform="translate(0 -2)">
          <path id="패스_1858" data-name="패스 1858" d="M15.5,18.5h0V.5h0Zm-9,0h0V.5h0Z" fill="#fff"/>
          <path id="패스_1859" data-name="패스 1859" d="M19,19H18V0h1Zm-3,0H15V0h1Zm-3,0H12V0h1Zm-3,0H9V0h1ZM7,19H6V0H7ZM4,19H3V0H4ZM1,19H0V0H1Z" fill="#f2df64"/>
        </g>
      </g>
    </g>
    <g id="icon" transform="translate(4 -0.001)">
      <rect id="사각형_874" data-name="사각형 874" width="46.815" height="48" transform="translate(0 0.001)" fill="none"/>
      <path id="패스_2128" data-name="패스 2128" d="M39.345,18.585l-.813,1.379-1.86,3.176-.834,1.422-.813,1.379-7.6-4.373v2.01L32.62,46.4H30.813l-.2-.93v-.011L23.6,41.339l5.368-3.347-.684-3.1-5.335-5.335,3.411-3.411-.716-3.272H17.789l-.524,3.272,3.411,3.411-5.41,5.41-.663,2.94,5.913,3.475-7.805,4.876-.032.139H11.011L16.2,23.579V15.121L6.7,9.657l-.128-.075L5.044,8.706,4.06,8.139l-.331-.192A4.243,4.243,0,0,1,2.168,2.119,4.3,4.3,0,0,1,8.027.58Z" transform="translate(0.109 0)" fill="#bac8a6"/>
      <path id="패스_2129" data-name="패스 2129" d="M24.7,22.893l-3.945,3.945-3.945-3.945Z" transform="translate(0.648 1.585)" fill="#bac8a6"/>
      <path id="패스_2130" data-name="패스 2130" d="M26.978,34.786l-5.849,3.657-6.276-3.7L20.894,28.7Z" transform="translate(0.521 1.987)" fill="#bac8a6"/>
      <path id="패스_2131" data-name="패스 2131" d="M28.138,43.658H14.613l6.554-4.1Z" transform="translate(0.493 2.739)" fill="#bac8a6"/>
      <path id="패스_2132" data-name="패스 2132" d="M42.323,30.275l.073-.043v-.011Zm4.894,15.557H42.323V30.275l-2.275,1.508a.577.577,0,0,0,.25-.107l.4-.278V45.832H30.177l-.2-.93v-.011l-6.845-4.117,5.238-3.347-.668-3.1L22.5,28.992l3.329-3.411-.7-3.272H17.468l-.511,3.272,3.329,3.411-5.28,5.41-.647,2.94,5.77,3.475-7.617,4.876-.031.139H10.174V41.267a2.881,2.881,0,0,0-2.849-2.919h-.8V9.019L5.03,8.142H4.957V38.348h-.8A2.888,2.888,0,0,0,1.3,41.267v4.566H.783a.8.8,0,0,0,0,1.6H47.217a.8.8,0,0,0,0-1.6M17.541,23.913h7.7l-3.85,3.945ZM15.5,36.167l5.9-6.041,5.937,6.084-5.708,3.657Zm-.25,9.666,6.4-4.1,6.8,4.1Z" transform="translate(0 0.564)" fill="#bac8a6"/>
      <path id="패스_2133" data-name="패스 2133" d="M29.891,43.985v-.011l-7.014-4.117,5.368-3.347-.684-3.1-5.335-5.335,3.411-3.411-.716-3.272H17.071l-.524,3.272,3.411,3.411-5.41,5.41-.663,2.94L19.8,39.9l-7.805,4.876-.032.139h2.833l6.554-4.1,6.971,4.1h1.775ZM17.146,23h7.891l-3.945,3.945Zm4.181,15.953-6.276-3.7,6.041-6.041,6.084,6.084Z" transform="translate(0.34 1.481)" fill="#fff"/>
      <path id="패스_2134" data-name="패스 2134" d="M48,44.194a.791.791,0,0,1-.783.8H.783a.8.8,0,0,1,0-1.6H47.217a.785.785,0,0,1,.783.8" transform="translate(0 3.004)" fill="#667c68"/>
      <path id="패스_2135" data-name="패스 2135" d="M40.786,28.931l-.075.053.075-.043,3.186-2.16ZM40.711,29v-.011L38.38,30.492Z" transform="translate(1.473 1.854)" fill="#bac8a6"/>
      <path id="패스_2136" data-name="패스 2136" d="M45.293,20.533l-.513,6.383a.822.822,0,0,1-.353.6l-3.186,2.149-.075.053-2.331,1.508a.606.606,0,0,1-.192.032.8.8,0,0,1-.406-.107l-6.03-3.475a.785.785,0,0,1-.374-.492.807.807,0,0,1,.075-.609l1.026-1.754.813-1.379.834-1.422,1.86-3.176.813-1.379.513-.877a.791.791,0,0,1,1.091-.289L44.9,19.774a.8.8,0,0,1,.4.759" transform="translate(1.017 1.121)" fill="#667c68"/>
    </g>
  </g>
</svg>
