<svg xmlns="http://www.w3.org/2000/svg" width="80" height="56" viewBox="0 0 80 56">
  <g id="ico_80_SKE_off" transform="translate(0)">
    <path id="container" d="M.014,0H79.98V56H.014Z" transform="translate(0.021)" fill="red" opacity="0"/>
    <g id="icon" transform="translate(22 4)">
      <rect id="container-2" data-name="container" width="48" height="48" transform="translate(-6)" fill="none"/>
      <path id="패스_1836" data-name="패스 1836" d="M42.66,10.72l-.9-6.83a.745.745,0,0,0-.74-.65h-1.9a.755.755,0,0,0-.75.75v7.2a2.093,2.093,0,0,0,.07.51,2.175,2.175,0,0,0,2.1,1.64,2,2,0,0,0,.54-.07.647.647,0,0,0,.13-.04V35.61a1.805,1.805,0,1,1-3.61,0V13.74a3.305,3.305,0,0,0-3.31-3.3H32.71V6.48A6.481,6.481,0,0,0,26.22,0H9.21a6.489,6.489,0,0,0-6.5,6.48V42.5A2.75,2.75,0,0,0,2.75,48H32.68a2.75,2.75,0,0,0,.03-5.5V11.94h1.58a1.807,1.807,0,0,1,1.81,1.8V35.61a3.305,3.305,0,1,0,6.61,0V11.31a1.708,1.708,0,0,0-.05-.59M4.21,6.48a5,5,0,0,1,5-4.98H26.22a4.989,4.989,0,0,1,4.99,4.98V42.43h-27ZM33.93,45.25a1.25,1.25,0,0,1-1.25,1.25H2.75a1.25,1.25,0,0,1,0-2.5H32.68a1.25,1.25,0,0,1,1.25,1.25m6.78-33.43a.678.678,0,0,1-.82-.49.772.772,0,0,1-.02-.15V4.74h.49L41.19,11a.985.985,0,0,1,.02.17v.02a.682.682,0,0,1-.5.63" transform="translate(-1)" fill="#667c68"/>
      <path id="패스_1837" data-name="패스 1837" d="M26.715,16h-18a2,2,0,0,1-2-2V9a2,2,0,0,1,2-2h18a2,2,0,0,1,2,2v5a2,2,0,0,1-2,2m-18-7.5a.5.5,0,0,0-.5.5v5a.5.5,0,0,0,.5.5h18a.5.5,0,0,0,.5-.5V9a.5.5,0,0,0-.5-.5Z" transform="translate(-1)" fill="#667c68"/>
      <path id="패스_1838" data-name="패스 1838" d="M18.215,37.246a6.75,6.75,0,1,1,6.75-6.75,6.758,6.758,0,0,1-6.75,6.75m0-12a5.25,5.25,0,1,0,5.25,5.25,5.256,5.256,0,0,0-5.25-5.25" transform="translate(-1)" fill="#667c68"/>
      <path id="패스_1839" data-name="패스 1839" d="M15.965,12.246h-1.5a.75.75,0,0,1,0-1.5h1.5a.75.75,0,0,1,0,1.5" transform="translate(-1)" fill="#667c68"/>
      <path id="패스_1840" data-name="패스 1840" d="M20.965,12.246h-1.5a.75.75,0,0,1,0-1.5h1.5a.75.75,0,0,1,0,1.5" transform="translate(-1)" fill="#667c68"/>
      <path id="패스_1841" data-name="패스 1841" d="M25.965,12.246h-1.5a.75.75,0,0,1,0-1.5h1.5a.75.75,0,0,1,0,1.5" transform="translate(-1)" fill="#667c68"/>
      <path id="패스_1842" data-name="패스 1842" d="M10.965,12.246h-1.5a.75.75,0,0,1,0-1.5h1.5a.75.75,0,0,1,0,1.5" transform="translate(-1)" fill="#667c68"/>
    </g>
  </g>
</svg>
