<svg xmlns="http://www.w3.org/2000/svg" xmlns:xlink="http://www.w3.org/1999/xlink" width="30" height="30" viewBox="0 0 30 30">
  <defs>
    <clipPath id="clip-path">
      <rect id="사각형_1217" data-name="사각형 1217" width="30" height="30" fill="none"/>
    </clipPath>
  </defs>
  <g id="달력" transform="translate(0 0)">
    <g id="그룹_2387" data-name="그룹 2387" transform="translate(0 0)">
      <g id="그룹_2386" data-name="그룹 2386" clip-path="url(#clip-path)">
        <rect id="사각형_1216" data-name="사각형 1216" width="24.055" height="19.583" transform="translate(3.102 6.208)" fill="none" stroke="#000" stroke-linecap="round" stroke-linejoin="round" stroke-width="2"/>
      </g>
    </g>
    <line id="선_112" data-name="선 112" y2="4.776" transform="translate(22.666 3.517)" fill="none" stroke="#000" stroke-linecap="round" stroke-linejoin="round" stroke-width="2"/>
    <line id="선_113" data-name="선 113" y2="4.776" transform="translate(7.694 3.517)" fill="none" stroke="#000" stroke-linecap="round" stroke-linejoin="round" stroke-width="2"/>
    <line id="선_114" data-name="선 114" y2="4.776" transform="translate(15.18 3.517)" fill="none" stroke="#000" stroke-linecap="round" stroke-linejoin="round" stroke-width="2"/>
    <g id="그룹_2389" data-name="그룹 2389" transform="translate(0 0)">
      <g id="그룹_2388" data-name="그룹 2388" clip-path="url(#clip-path)">
        <path id="패스_1444" data-name="패스 1444" d="M8.885,12.563a1,1,0,1,1-1-1,1,1,0,0,1,1,1" transform="translate(-0.191 -0.533)"/>
        <path id="패스_1445" data-name="패스 1445" d="M8.885,17.281a1,1,0,1,1-1-1,1,1,0,0,1,1,1" transform="translate(-0.191 -0.75)"/>
        <path id="패스_1446" data-name="패스 1446" d="M8.885,22a1,1,0,1,1-1-1,1,1,0,0,1,1,1" transform="translate(-0.191 -0.968)"/>
        <path id="패스_1447" data-name="패스 1447" d="M19.151,12.563a1,1,0,1,1-1-1,1,1,0,0,1,1,1" transform="translate(-0.475 -0.533)"/>
        <path id="패스_1448" data-name="패스 1448" d="M19.151,17.281a1,1,0,1,1-1-1,1,1,0,0,1,1,1" transform="translate(-0.475 -0.75)"/>
        <path id="패스_1449" data-name="패스 1449" d="M19.151,22a1,1,0,1,1-1-1,1,1,0,0,1,1,1" transform="translate(-0.475 -0.968)"/>
        <path id="패스_1450" data-name="패스 1450" d="M14.018,12.563a1,1,0,1,1-1-1,1,1,0,0,1,1,1" transform="translate(-0.333 -0.533)"/>
        <path id="패스_1451" data-name="패스 1451" d="M14.018,17.281a1,1,0,1,1-1-1,1,1,0,0,1,1,1" transform="translate(-0.333 -0.75)"/>
        <path id="패스_1452" data-name="패스 1452" d="M14.018,22a1,1,0,1,1-1-1,1,1,0,0,1,1,1" transform="translate(-0.333 -0.968)"/>
        <path id="패스_1453" data-name="패스 1453" d="M24.284,12.563a1,1,0,1,1-1-1,1,1,0,0,1,1,1" transform="translate(-0.617 -0.533)"/>
        <path id="패스_1454" data-name="패스 1454" d="M24.284,17.281a1,1,0,1,1-1-1,1,1,0,0,1,1,1" transform="translate(-0.617 -0.75)"/>
        <path id="패스_1455" data-name="패스 1455" d="M24.284,22a1,1,0,1,1-1-1,1,1,0,0,1,1,1" transform="translate(-0.617 -0.968)"/>
      </g>
    </g>
  </g>
</svg>
