<svg xmlns="http://www.w3.org/2000/svg" xmlns:xlink="http://www.w3.org/1999/xlink" width="72.094" height="50" viewBox="0 0 72.094 50">
  <defs>
    <clipPath id="clip-path">
      <rect id="mask" width="71.701" height="43.021" fill="red" opacity="0.1"/>
    </clipPath>
    <clipPath id="clip-path-2">
      <circle id="타원_15" data-name="타원 15" cx="7.17" cy="7.17" r="7.17" fill="#eeca1a"/>
    </clipPath>
    <clipPath id="clip-path-3">
      <rect id="사각형_872" data-name="사각형 872" width="44.702" height="43.021" fill="none"/>
    </clipPath>
  </defs>
  <g id="ico_80_SKEO_on" transform="translate(-0.409 2.815)">
    <rect id="container" width="72" height="50" transform="translate(0.503 -2.815)" fill="none" opacity="0.1"/>
    <g id="꾸밈요소" transform="translate(0.409 0.685)" clip-path="url(#clip-path)">
      <circle id="타원_14" data-name="타원 14" cx="10.755" cy="10.755" r="10.755" transform="translate(1.509 21.51)" fill="#d1ad1c" opacity="0.2"/>
      <circle id="타원_16" data-name="타원 16" cx="5.378" cy="5.378" r="5.378" transform="translate(0 17.925)" fill="#e3913f" opacity="0.2"/>
      <g id="마스크_그룹_1" data-name="마스크 그룹 1" transform="translate(64.543 25.723) rotate(45)" clip-path="url(#clip-path-2)">
        <g id="합치기_4" data-name="합치기 4" transform="translate(0 -1.793)">
          <path id="패스_23598" data-name="패스 23598" d="M8.067,16.133h0V0h0ZM0,16.133H0V0H0Z" transform="translate(5.825 0.448)" fill="#fff"/>
          <path id="패스_23599" data-name="패스 23599" d="M17.029,17.029h-.9V0h.9Zm-2.689,0h-.9V0h.9Zm-2.689,0h-.9V0h.9Zm-2.689,0h-.9V0h.9Zm-2.689,0h-.9V0h.9Zm-2.689,0h-.9V0h.9Zm-2.689,0H0V0H.9Z" fill="#f2df64"/>
        </g>
      </g>
    </g>
    <g id="icon" transform="translate(13.91 0.164)">
      <g id="그룹_1078" data-name="그룹 1078" clip-path="url(#clip-path-3)">
        <path id="패스_2112" data-name="패스 2112" d="M44.493,16.705l-2.419-2.419V11.044A11.043,11.043,0,0,0,31.03,0H26.774V4.246a11.725,11.725,0,0,0,.287,2.448H8.118a4.031,4.031,0,0,0-.469.038C3.328,7.143,0,13.052,0,20.559c0,.067.01.124.01.2v.01c-.01.01-.01.01-.01.019V42.3a.716.716,0,0,0,.717.717H25.1a.71.71,0,0,0,.717-.717V34.424h8.29c4.4,0,7.965-6.206,7.965-13.865a21.857,21.857,0,0,0-.488-4.733l1.893,1.893a.716.716,0,0,0,1.014,0,.721.721,0,0,0,0-1.014M1.453,20.081c.134-6.235,2.869-11.446,6.2-11.915a4.192,4.192,0,0,1,.478-.038,3.218,3.218,0,0,1,.956.143c3.117.87,5.6,5.881,5.728,11.809,0,.153.019.316.019.478h-.01c0,.316-.01.641-.019.956C14.554,27.233,12.115,32,9.084,32.837a3.569,3.569,0,0,1-.956.153,4.259,4.259,0,0,1-.478-.048c-3.242-.449-5.929-5.412-6.187-11.427-.01-.316-.029-.641-.029-.956,0-.163.01-.325.019-.478M24.384,41.6H1.434V28.515C2.811,31.9,5.049,34.147,7.65,34.4a4.131,4.131,0,0,0,.478.029H24.384ZM38.5,29.643c-1.234,2.161-2.792,3.347-4.389,3.347H11.781c2.515-2.113,4.255-6.378,4.456-11.475.01-.325.029-.641.029-.956,0-.163-.019-.325-.019-.478-.105-5.307-1.874-9.763-4.466-11.953H27.491A11.072,11.072,0,0,0,37.828,15.3H40a18.4,18.4,0,0,1,.641,5.259A18.443,18.443,0,0,1,38.5,29.643M40.64,12.852,33.018,5.231A.717.717,0,0,0,32,6.244l7.621,7.621h-1.8a9.634,9.634,0,0,1-8.788-5.737,8.788,8.788,0,0,1-.5-1.434,9.682,9.682,0,0,1-.335-2.448V1.434H31.03a9.611,9.611,0,0,1,9.61,9.61Z" transform="translate(0 0)" fill="#39393a"/>
        <path id="패스_2113" data-name="패스 2113" d="M33.3,5.3a.721.721,0,0,0,0,1.014l7.621,7.621h-1.8a9.634,9.634,0,0,1-8.788-5.737,8.788,8.788,0,0,1-.5-1.434A9.682,9.682,0,0,1,29.5,4.311V1.5h2.821a9.611,9.611,0,0,1,9.61,9.61v1.807L34.31,5.3a.721.721,0,0,0-1.014,0" transform="translate(-1.291 -0.066)" fill="#667c68"/>
        <path id="패스_2114" data-name="패스 2114" d="M24.449,35.729V42.9H1.5V29.82c1.377,3.385,3.615,5.632,6.215,5.881a4.132,4.132,0,0,0,.478.029Z" transform="translate(-0.066 -1.306)" fill="#bac8a6"/>
        <path id="패스_2115" data-name="패스 2115" d="M14.878,20.453c-.124-5.929-2.61-10.939-5.728-11.809A3.218,3.218,0,0,0,8.194,8.5a4.192,4.192,0,0,0-.478.038c-3.328.469-6.062,5.68-6.2,11.915-.01.153-.019.316-.019.478,0,.316.019.641.029.956C1.787,27.9,4.474,32.865,7.715,33.314a4.259,4.259,0,0,0,.478.048,3.569,3.569,0,0,0,.956-.153c3.031-.841,5.47-5.6,5.718-11.322.01-.316.019-.641.019-.956h.01c0-.163-.019-.325-.019-.478M9.15,26.372a1.952,1.952,0,0,1-1.434.775c-1.578,0-2.869-2.572-2.869-5.737s1.291-5.737,2.869-5.737a1.892,1.892,0,0,1,1.434.775,7.854,7.854,0,0,1,1.434,4.963A7.871,7.871,0,0,1,9.15,26.372" transform="translate(-0.066 -0.372)" fill="#bac8a6"/>
        <path id="패스_2116" data-name="패스 2116" d="M41.179,20.931a18.443,18.443,0,0,1-2.142,9.084c-1.234,2.161-2.792,3.347-4.389,3.347H12.32c2.515-2.113,4.255-6.378,4.456-11.475.01-.325.029-.641.029-.956,0-.163-.019-.325-.019-.478C16.68,15.146,14.911,10.69,12.32,8.5H28.031a11.072,11.072,0,0,0,10.337,7.172h2.171a18.4,18.4,0,0,1,.641,5.259" transform="translate(-0.539 -0.372)" fill="#bac8a6"/>
        <path id="패스_2117" data-name="패스 2117" d="M10.737,21.737A7.871,7.871,0,0,1,9.3,26.7a1.952,1.952,0,0,1-1.434.775C6.291,27.475,5,24.9,5,21.737S6.291,16,7.869,16a1.892,1.892,0,0,1,1.434.775,7.854,7.854,0,0,1,1.434,4.963" transform="translate(-0.219 -0.701)" fill="#39393a"/>
      </g>
    </g>
  </g>
</svg>
