<svg id="ico_80_SKE_on" xmlns="http://www.w3.org/2000/svg" xmlns:xlink="http://www.w3.org/1999/xlink" width="80" height="56" viewBox="0 0 80 56">
  <defs>
    <clipPath id="clip-path">
      <rect id="mask" width="80" height="48" fill="red" opacity="0.1"/>
    </clipPath>
    <clipPath id="clip-path-2">
      <circle id="타원_15" data-name="타원 15" cx="8" cy="8" r="8" fill="#eeca1a"/>
    </clipPath>
  </defs>
  <rect id="container" width="80" height="56" fill="none" opacity="0.1"/>
  <g id="꾸밈요소" clip-path="url(#clip-path)">
    <circle id="타원_14" data-name="타원 14" cx="12" cy="12" r="12" transform="translate(1.684 24)" fill="#d1ad1c" opacity="0.2"/>
    <circle id="타원_16" data-name="타원 16" cx="6" cy="6" r="6" transform="translate(0 20)" fill="#e3913f" opacity="0.2"/>
    <g id="마스크_그룹_1" data-name="마스크 그룹 1" transform="translate(72.014 28.7) rotate(45)" clip-path="url(#clip-path-2)">
      <path id="합치기_4" data-name="합치기 4" d="M18,19V0h1V19Zm-3,0V0h1V19Zm-3,0V0h1V19ZM9,19V0h1V19ZM6,19V0H7V19ZM3,19V0H4V19ZM0,19V0H1V19Z" transform="translate(0 -2)" fill="#fff"/>
      <path id="합치기_4_-_윤곽선" data-name="합치기 4 - 윤곽선" d="M19,19H18V0h1Zm-3,0H15V0h1Zm-3,0H12V0h1Zm-3,0H9V0h1ZM7,19H6V0H7ZM4,19H3V0H4ZM1,19H0V0H1Z" transform="translate(0 -2)" fill="#f2df64"/>
    </g>
  </g>
  <path id="container-2" data-name="container" d="M0,0H47.98V48H0Z" transform="translate(16.021 4)" fill="none" opacity="0.19"/>
  <g id="icon" transform="translate(21 4)">
    <path id="패스_1824" data-name="패스 1824" d="M42.71,11.32v24.3a3.31,3.31,0,1,1-6.62,0V13.75a1.807,1.807,0,0,0-1.8-1.81H32.51a.75.75,0,0,1,0-1.5h1.78a3.312,3.312,0,0,1,3.3,3.31V35.62a1.81,1.81,0,1,0,3.62,0V13.23a2.155,2.155,0,0,0,1.5-1.91" fill="#667c68"/>
    <path id="패스_1825" data-name="패스 1825" d="M32.51,10.44a.75.75,0,0,0,0,1.5h.2v-1.5Z" fill="#667c68"/>
    <path id="패스_1826" data-name="패스 1826" d="M32.51,10.44h.2V6.49A6.5,6.5,0,0,0,26.22,0H9.2A6.5,6.5,0,0,0,2.71,6.49V42.5h30V11.94h-.2a.75.75,0,0,1,0-1.5M18.21,37.25a6.75,6.75,0,1,1,6.75-6.75,6.76,6.76,0,0,1-6.75,6.75M28.71,14a2,2,0,0,1-2,2h-18a2,2,0,0,1-2-2V9a2.006,2.006,0,0,1,2-2h18a2.006,2.006,0,0,1,2,2Z" fill="#bac8a6"/>
    <path id="패스_1827" data-name="패스 1827" d="M26.71,7h-18a2.006,2.006,0,0,0-2,2v5a2,2,0,0,0,2,2h18a2,2,0,0,0,2-2V9a2.006,2.006,0,0,0-2-2M10.96,12.25H9.46a.75.75,0,0,1,0-1.5h1.5a.75.75,0,1,1,0,1.5m5,0h-1.5a.75.75,0,0,1,0-1.5h1.5a.75.75,0,0,1,0,1.5m5,0h-1.5a.75.75,0,0,1,0-1.5h1.5a.75.75,0,0,1,0,1.5m5,0h-1.5a.75.75,0,1,1,0-1.5h1.5a.75.75,0,0,1,0,1.5" fill="#fff"/>
    <path id="패스_1828" data-name="패스 1828" d="M24.96,30.5a6.75,6.75,0,1,1-6.75-6.75,6.76,6.76,0,0,1,6.75,6.75" fill="#fff"/>
    <path id="패스_1829" data-name="패스 1829" d="M35.42,45.25A2.746,2.746,0,0,1,32.68,48H2.75a2.75,2.75,0,0,1-.04-5.5h30a2.753,2.753,0,0,1,2.71,2.75" fill="#667c68"/>
    <path id="패스_1830" data-name="패스 1830" d="M16.71,11.5a.749.749,0,0,1-.75.75h-1.5a.75.75,0,0,1,0-1.5h1.5a.755.755,0,0,1,.75.75" fill="#667c68"/>
    <path id="패스_1831" data-name="패스 1831" d="M21.71,11.5a.749.749,0,0,1-.75.75h-1.5a.75.75,0,0,1,0-1.5h1.5a.755.755,0,0,1,.75.75" fill="#667c68"/>
    <path id="패스_1832" data-name="패스 1832" d="M42.71,11.32a2.155,2.155,0,0,1-1.5,1.91.578.578,0,0,1-.14.05,2.41,2.41,0,0,1-.53.07,2.186,2.186,0,0,1-2.11-1.64,2.157,2.157,0,0,1-.06-.51V4a.743.743,0,0,1,.75-.75h1.9a.753.753,0,0,1,.74.65l.9,6.83a1.669,1.669,0,0,1,.05.59" fill="#bac8a6"/>
    <path id="패스_1833" data-name="패스 1833" d="M26.71,11.5a.749.749,0,0,1-.75.75h-1.5a.75.75,0,1,1,0-1.5h1.5a.755.755,0,0,1,.75.75" fill="#667c68"/>
    <path id="패스_1834" data-name="패스 1834" d="M11.71,11.5a.749.749,0,0,1-.75.75H9.46a.75.75,0,0,1,0-1.5h1.5a.755.755,0,0,1,.75.75" fill="#667c68"/>
    <path id="패스_1835" data-name="패스 1835" d="M20.631,31.158a2.423,2.423,0,0,1-4.842,0c0-1.279,2.421-4.141,2.421-4.141s2.421,2.862,2.421,4.141" fill="#667c68"/>
    <rect id="사각형_827" data-name="사각형 827" width="48" height="48" transform="translate(-5)" fill="none"/>
  </g>
</svg>
