<svg xmlns="http://www.w3.org/2000/svg" xmlns:xlink="http://www.w3.org/1999/xlink" width="80" height="56" viewBox="0 0 80 56">
  <defs>
    <clipPath id="clip-path">
      <rect id="mask" width="80" height="48" fill="red" opacity="0.1"/>
    </clipPath>
    <clipPath id="clip-path-2">
      <circle id="타원_15" data-name="타원 15" cx="8" cy="8" r="8" fill="#eeca1a"/>
    </clipPath>
  </defs>
  <g id="ico_80_SKL_on" transform="translate(12 4)">
    <rect id="container" width="80" height="56" transform="translate(-12 -4)" fill="none" opacity="0.1"/>
    <g id="꾸밈요소" transform="translate(-12 -4)" clip-path="url(#clip-path)">
      <circle id="타원_14" data-name="타원 14" cx="12" cy="12" r="12" transform="translate(1.684 24)" fill="#d1ad1c" opacity="0.2"/>
      <circle id="타원_16" data-name="타원 16" cx="6" cy="6" r="6" transform="translate(0 20)" fill="#e3913f" opacity="0.2"/>
      <g id="마스크_그룹_1" data-name="마스크 그룹 1" transform="translate(72.014 28.7) rotate(45)" clip-path="url(#clip-path-2)">
        <g id="합치기_4" data-name="합치기 4" transform="translate(0 -2)">
          <path id="패스_1858" data-name="패스 1858" d="M15.5,18.5h0V.5h0Zm-9,0h0V.5h0Z" fill="#fff"/>
          <path id="패스_1859" data-name="패스 1859" d="M19,19H18V0h1Zm-3,0H15V0h1Zm-3,0H12V0h1Zm-3,0H9V0h1ZM7,19H6V0H7ZM4,19H3V0H4ZM1,19H0V0H1Z" fill="#f2df64"/>
        </g>
      </g>
    </g>
    <g id="icon" transform="translate(4.155 0)">
      <rect id="container-2" data-name="container" width="48" height="48" transform="translate(-0.155 0)" fill="none"/>
      <path id="패스_2153" data-name="패스 2153" d="M35.451,3.781H14.671l.29.19a.716.716,0,0,1,.34.55.723.723,0,0,1-.21.61L4.641,15.581a.749.749,0,0,1-.53.22h-.1a.765.765,0,0,1-.49-.28v25.86a6.6,6.6,0,0,0,6.59,6.6h24.98a6.607,6.607,0,0,0,6.6-6.6V10.021a6.261,6.261,0,0,0-6.24-6.24m.21,14.46a1.539,1.539,0,0,1-1.53,1.54,1.5,1.5,0,0,1-1.18-.56l-5.29-6.36a1.552,1.552,0,0,1,.2-2.16,1.555,1.555,0,0,1,.99-.35h5.28a1.53,1.53,0,0,1,1.53,1.53Zm-15.05,8.45-4.44,5.48h4.44v.86h-5.67v-.81l4.41-5.51h-4.09v-.86h5.35Zm2.17,6.34H21.8v-7.18h.98Zm6.72-.73a3.257,3.257,0,0,1-4.36.16,4,4,0,0,1-1.1-3.09,3.965,3.965,0,0,1,.83-2.61,3.024,3.024,0,0,1,2.47-1.1,2.867,2.867,0,0,1,2.09.72,2.554,2.554,0,0,1,.83,1.63h-.95a1.929,1.929,0,0,0-.63-1.1,1.977,1.977,0,0,0-1.33-.41,2.111,2.111,0,0,0-1.68.75,3.484,3.484,0,0,0-.64,2.28,3.41,3.41,0,0,0,.58,2.05,2.018,2.018,0,0,0,1.73.78,1.792,1.792,0,0,0,1.6-.82,3.157,3.157,0,0,0,.44-1.14h.95a3.336,3.336,0,0,1-.83,1.9" transform="translate(-0.155 0)" fill="#bac8a6"/>
      <path id="패스_2154" data-name="패스 2154" d="M15.3,4.521a.723.723,0,0,1-.21.61L4.641,15.581a.749.749,0,0,1-.53.22h-.1a.765.765,0,0,1-.49-.28.865.865,0,0,1-.07-.1l-2.06-3.71a.746.746,0,0,1,.14-.91l.54-.52L.191,8.2a.762.762,0,0,1,.04-1.05L7.551.2a.759.759,0,0,1,1.04.01l2.02,1.96.2-.19a.754.754,0,0,1,.92-.09l2.94,1.89.29.19a.716.716,0,0,1,.34.55" transform="translate(-0.155 0)" fill="#667c68"/>
      <path id="패스_2155" data-name="패스 2155" d="M20.861,26.781l-4.17,5.14h4.17v1.36h-6.17v-1.15l4.14-5.17h-3.82V25.6h5.85Z" transform="translate(-0.155 0)" fill="#fff"/>
      <rect id="사각형_884" data-name="사각형 884" width="1.48" height="7.68" transform="translate(21.396 25.602)" fill="#fff"/>
      <path id="패스_2156" data-name="패스 2156" d="M30.611,30.151l-.03.28a3.625,3.625,0,0,1-.89,2.04,3.525,3.525,0,0,1-4.72.18,4.3,4.3,0,0,1-1.18-3.28,4.243,4.243,0,0,1,.89-2.77,3.269,3.269,0,0,1,2.66-1.19,3.107,3.107,0,0,1,2.26.79,2.8,2.8,0,0,1,.91,1.79l.03.27h-1.43l-.04-.2a1.738,1.738,0,0,0-.55-.96,1.757,1.757,0,0,0-1.17-.35,1.865,1.865,0,0,0-1.49.66,3.291,3.291,0,0,0-.58,2.12,3.167,3.167,0,0,0,.53,1.9,1.761,1.761,0,0,0,1.53.68,1.534,1.534,0,0,0,1.39-.71,2.873,2.873,0,0,0,.41-1.05l.04-.2Z" transform="translate(-0.155 0)" fill="#fff"/>
    </g>
  </g>
</svg>
