<svg id="icon_80_SK_off" xmlns="http://www.w3.org/2000/svg" width="80" height="56" viewBox="0 0 80 56">
  <path id="container" d="M.014,0h80V56h-80Z" transform="translate(-0.014)" fill="red" opacity="0"/>
  <g id="icon" transform="translate(15 3)">
    <rect id="container-2" data-name="container" width="48" height="48" transform="translate(1 1)" fill="none"/>
    <path id="패스_1797" data-name="패스 1797" d="M21.61,34.581H20.2v-6.72a.741.741,0,0,0-.23-.54l-9.79-9.59a3.52,3.52,0,0,0-3.1-.94v-5.97a3.54,3.54,0,1,0-7.08,0v14.12a.59.59,0,0,0,.02.14.9.9,0,0,0,.11.27,1.1,1.1,0,0,0,.1.11l.1.09,8.37,8.07v.96H7.73a.749.749,0,0,0-.75.75v12.79a.755.755,0,0,0,.75.75H21.61a.755.755,0,0,0,.75-.75V35.331a.749.749,0,0,0-.75-.75M1.5,24.6V10.811a1.993,1.993,0,0,1,.6-1.43,2.036,2.036,0,0,1,3.48,1.44v6.66c-.09.08-.18.16-.27.25a.3.3,0,0,0-.08.08,3.356,3.356,0,0,0,.07,4.75l4.89,4.79a.75.75,0,1,0,1.05-1.07l-4.9-4.79a1.883,1.883,0,0,1,0-2.68,2,2,0,0,1,2.8,0l9.56,9.36v6.41H10.2v-1.27a.755.755,0,0,0-.22-.54Zm19.36,22.77H8.48v-6.11H20.86Zm0-7.61H8.48v-3.68H20.86Z" transform="translate(1)" fill="#667c68"/>
    <path id="패스_1798" data-name="패스 1798" d="M46.77,8.311a3.55,3.55,0,0,0-6.05,2.51v5.97a3.52,3.52,0,0,0-3.1.94l-9.79,9.59a.741.741,0,0,0-.23.54v6.72H26.2a.743.743,0,0,0-.75.75v12.79a.749.749,0,0,0,.75.75H40.07a.749.749,0,0,0,.75-.75V35.331a.743.743,0,0,0-.75-.75H39.1v-.96l8.37-8.07h.01l.09-.09a.864.864,0,0,0,.22-.38c-.01-.01-.01-.01,0-.01A.2.2,0,0,0,47.8,25a.148.148,0,0,0,.01-.07V10.811a3.519,3.519,0,0,0-1.04-2.5m-7.45,39.06H26.95v-6.11H39.32Zm0-7.61H26.95v-3.68H39.32Zm6.99-15.17-8.48,8.18a.725.725,0,0,0-.23.54v1.27H29.1v-6.41l9.56-9.36a2.017,2.017,0,0,1,2.84.04,1.874,1.874,0,0,1-.04,2.64l-4.9,4.79a.75.75,0,1,0,1.05,1.07l4.89-4.79a3.285,3.285,0,0,0,1.02-2.36,3.32,3.32,0,0,0-.95-2.4l-.07-.07c-.09-.09-.19-.17-.28-.25v-6.66a1.987,1.987,0,0,1,.6-1.44,2.009,2.009,0,0,1,1.45-.6,2.031,2.031,0,0,1,2.04,2.04Z" transform="translate(1.19)" fill="#667c68"/>
    <path id="패스_1799" data-name="패스 1799" d="M37.61,13.451c-1.72-2.53-7.96-6.16-12.25-5.93C23.31,3.721,16.89.121,13.88,0a.769.769,0,0,0-.57.23.751.751,0,0,0-.2.59l.07.86c.21,2.7.77,9.86,1.5,12.53a.724.724,0,0,0,.36.46.768.768,0,0,0,.36.09.908.908,0,0,0,.23-.03,9.448,9.448,0,0,1,4.87-.5.75.75,0,0,0,.84-.29c.54-.77,1.1-1.53,1.68-2.27-.32.9-.67,1.79-1.04,2.66a.746.746,0,0,0,.2.86,9.358,9.358,0,0,1,2.16,4.39.743.743,0,0,0,.36.47.768.768,0,0,0,.36.09.78.78,0,0,0,.22-.03c1.86-.55,5.77-2.36,11.64-5.37l.41-.2a.753.753,0,0,0,.38-.49.71.71,0,0,0-.1-.6m-17.22-.76a11.352,11.352,0,0,0-4.44.39c-.61-2.94-1.08-8.99-1.27-11.46,2.8.64,7.7,3.61,9.32,6.54a52.311,52.311,0,0,0-3.61,4.53m5.18,5.74a11.567,11.567,0,0,0-2.02-3.97A52.735,52.735,0,0,0,25.47,9c3.29-.15,8.31,2.49,10.35,4.62a110.43,110.43,0,0,1-10.25,4.81" transform="translate(1 1)" fill="#667c68"/>
  </g>
</svg>
