<svg xmlns="http://www.w3.org/2000/svg" xmlns:xlink="http://www.w3.org/1999/xlink" width="80" height="56" viewBox="0 0 80 56">
  <defs>
    <clipPath id="clip-path">
      <rect id="mask" width="80" height="48" fill="red" opacity="0.1"/>
    </clipPath>
    <clipPath id="clip-path-2">
      <circle id="타원_15" data-name="타원 15" cx="8" cy="8" r="8" fill="#eeca1a"/>
    </clipPath>
  </defs>
  <g id="ico_80_SKIET_on" transform="translate(12 4)">
    <rect id="container" width="80" height="56" transform="translate(-12 -4)" fill="none" opacity="0.1"/>
    <g id="꾸밈요소" transform="translate(-12 -4)" clip-path="url(#clip-path)">
      <circle id="타원_14" data-name="타원 14" cx="12" cy="12" r="12" transform="translate(1.684 24)" fill="#d1ad1c" opacity="0.2"/>
      <circle id="타원_16" data-name="타원 16" cx="6" cy="6" r="6" transform="translate(0 20)" fill="#e3913f" opacity="0.2"/>
      <g id="마스크_그룹_1" data-name="마스크 그룹 1" transform="translate(72.014 28.7) rotate(45)" clip-path="url(#clip-path-2)">
        <g id="합치기_4" data-name="합치기 4" transform="translate(0 -2)">
          <path id="패스_1858" data-name="패스 1858" d="M15.5,18.5h0V.5h0Zm-9,0h0V.5h0Z" fill="#fff"/>
          <path id="패스_1859" data-name="패스 1859" d="M19,19H18V0h1Zm-3,0H15V0h1Zm-3,0H12V0h1Zm-3,0H9V0h1ZM7,19H6V0H7ZM4,19H3V0H4ZM1,19H0V0H1Z" fill="#f2df64"/>
        </g>
      </g>
    </g>
    <g id="icon" transform="translate(3 1)">
      <rect id="container-2" data-name="container" width="48" height="47.987" transform="translate(1 -1)" fill="none"/>
      <g id="그룹_1262" data-name="그룹 1262" transform="translate(1 -0.061)">
        <path id="합치기_39" data-name="합치기 39" d="M29.722,27.464H0V0H29.722V3.069h1.033v24.4Z" transform="translate(0 19.597)" fill="#bac8a6"/>
        <path id="합치기_39_-_윤곽선" data-name="합치기 39 - 윤곽선" d="M29.255,25.964V4.569H28.222V1.5H1.5V25.964H29.255m1.5,1.5H0V0H29.722V3.069h1.033Z" transform="translate(0 19.597)" fill="#fff"/>
        <path id="패스_2613" data-name="패스 2613" d="M37.336,7.524h-26.5V38.5h26.5c4.432,0,8.025-6.935,8.025-15.489S41.768,7.524,37.336,7.524" transform="translate(0 -1.939)" fill="#bac8a6"/>
        <path id="패스_2614" data-name="패스 2614" d="M9.833,6.524h27.5c2.536,0,4.866,1.8,6.562,5.076a25.342,25.342,0,0,1,2.463,11.412A25.344,25.344,0,0,1,43.9,34.424C42.2,37.7,39.872,39.5,37.336,39.5H9.833ZM37.336,37.5c3.808,0,7.025-6.635,7.025-14.489S41.144,8.524,37.336,8.524h-25.5V37.5Z" transform="translate(0 -1.939)" fill="#fff"/>
        <path id="패스_2615" data-name="패스 2615" d="M19.148,23.013c0,8.554-4.063,15.488-9.074,15.488S1,31.567,1,23.013,5.063,7.525,10.074,7.525s9.074,6.934,9.074,15.488" transform="translate(0 -1.939)" fill="#bac8a6"/>
        <path id="타원_157" data-name="타원 157" d="M9.074-1A6.95,6.95,0,0,1,13.191.406a11.671,11.671,0,0,1,3.162,3.624,23.013,23.013,0,0,1,2.795,11.457,23.013,23.013,0,0,1-2.795,11.457,11.671,11.671,0,0,1-3.162,3.624,6.95,6.95,0,0,1-4.117,1.406A6.95,6.95,0,0,1,4.957,30.57a11.671,11.671,0,0,1-3.162-3.624A23.013,23.013,0,0,1-1,15.488,23.013,23.013,0,0,1,1.795,4.031,11.671,11.671,0,0,1,4.957.406,6.95,6.95,0,0,1,9.074-1Zm0,30.976c2.054,0,4.026-1.435,5.553-4.042a21,21,0,0,0,2.521-10.446A21,21,0,0,0,14.627,5.042C13.1,2.435,11.128,1,9.074,1S5.048,2.435,3.521,5.042A21,21,0,0,0,1,15.488,21,21,0,0,0,3.521,25.934C5.048,28.541,7.02,29.976,9.074,29.976Z" transform="translate(1 5.586)" fill="#fff"/>
        <path id="패스_2616" data-name="패스 2616" d="M13.283,23.013c0,3.535-1.437,6.4-3.209,6.4s-3.21-2.865-3.21-6.4,1.437-6.4,3.21-6.4,3.209,2.865,3.209,6.4" transform="translate(0 -1.945)" fill="#fff"/>
        <path id="패스_2617" data-name="패스 2617" d="M44.966,16.618H41.424A12.137,12.137,0,0,1,30.361,9.41a11.1,11.1,0,0,1-.627-1.8,12.133,12.133,0,0,1-.427-3.074V1h3.554A12.091,12.091,0,0,1,44.966,13.075v3.542Z" transform="translate(-0.954 -0.664)" fill="#667c68"/>
        <path id="패스_2618" data-name="패스 2618" d="M45.966,17.618H41.424a13.151,13.151,0,0,1-11.978-7.8,12.136,12.136,0,0,1-.68-1.954,13.141,13.141,0,0,1-.46-3.319V0h4.554A13.091,13.091,0,0,1,45.966,13.075ZM30.307,4.529A11.14,11.14,0,0,0,30.7,7.344l0,.017A10.138,10.138,0,0,0,31.274,9a11.149,11.149,0,0,0,10.153,6.616h2.539V13.075A11.1,11.1,0,0,0,32.861,2H30.307Z" transform="translate(-0.954 -1)" fill="#fff"/>
        <path id="선_161" data-name="선 161" d="M11.547,12.547a1,1,0,0,1-.707-.293L-.707.707a1,1,0,0,1,0-1.414,1,1,0,0,1,1.414,0L12.254,10.84a1,1,0,0,1-.707,1.707Z" transform="translate(35.452 7.061)" fill="#667c68"/>
      </g>
    </g>
  </g>
</svg>
