<svg id="ico_80_SKO_off" xmlns="http://www.w3.org/2000/svg" width="80" height="56" viewBox="0 0 80 56">
  <path id="container" d="M.014,0h80V56h-80Z" transform="translate(-0.014)" fill="red" opacity="0"/>
  <g id="icon" transform="translate(16 4)">
    <rect id="container-2" data-name="container" width="48" height="48" transform="translate(0 0)" fill="none"/>
    <path id="패스_2092" data-name="패스 2092" d="M46,8H42V6a3,3,0,0,0-3-3H37.75V0h-1.5V3H35a3,3,0,0,0-3,3V8H16V6a3,3,0,0,0-3-3H11.75V0h-1.5V3H9A3,3,0,0,0,6,6V8H2a2,2,0,0,0-2,2v4a2.006,2.006,0,0,0,2,2V40.63C2,43.59,4.69,46,8,46H40c3.31,0,6-2.41,6-5.37V16a2,2,0,0,0,2-2V10a1.993,1.993,0,0,0-2-2M33.5,6A1.5,1.5,0,0,1,35,4.5h4A1.5,1.5,0,0,1,40.5,6V7.5h-7ZM7.5,6A1.5,1.5,0,0,1,9,4.5h4A1.5,1.5,0,0,1,14.5,6V7.5h-7Zm37,34.63c0,2.13-2.02,3.87-4.5,3.87H8c-2.48,0-4.5-1.74-4.5-3.87V16.16h41ZM46.5,14a.5.5,0,0,1-.5.5H2a.508.508,0,0,1-.5-.5V10A.5.5,0,0,1,2,9.5H46a.5.5,0,0,1,.5.5Z" transform="translate(0 1)" fill="#667c68"/>
    <rect id="사각형_864" data-name="사각형 864" width="6" height="2" transform="translate(8.001 30.33)" fill="#667c68"/>
    <path id="패스_2093" data-name="패스 2093" d="M40,29.334v2H38v2H36v-2H34v-2h2v-2h2v2Z" transform="translate(0 1)" fill="#667c68"/>
    <path id="패스_2094" data-name="패스 2094" d="M26.147,30.33h0a.771.771,0,0,1-.778-.762.785.785,0,0,1,.014-.153l.817-4.067a.649.649,0,0,0-1.131-.541L21.3,29.146a.717.717,0,0,0,.553,1.184.769.769,0,0,1,.777.761.724.724,0,0,1-.014.154L21.8,35.312a.649.649,0,0,0,1.131.541L26.7,31.514a.717.717,0,0,0-.553-1.184" transform="translate(0 1)" fill="#667c68"/>
  </g>
</svg>
