<svg xmlns="http://www.w3.org/2000/svg" xmlns:xlink="http://www.w3.org/1999/xlink" width="80" height="56" viewBox="0 0 80 56">
  <defs>
    <clipPath id="clip-path">
      <rect id="mask" width="80" height="48" fill="red" opacity="0.1"/>
    </clipPath>
    <clipPath id="clip-path-2">
      <circle id="타원_15" data-name="타원 15" cx="8" cy="8" r="8" fill="#eeca1a"/>
    </clipPath>
  </defs>
  <g id="ico_80_SKGC_on" transform="translate(12 4)">
    <rect id="container" width="80" height="56" transform="translate(-12 -4)" fill="none" opacity="0.1"/>
    <g id="꾸밈요소" transform="translate(-12 -4)" clip-path="url(#clip-path)">
      <circle id="타원_14" data-name="타원 14" cx="12" cy="12" r="12" transform="translate(1.684 24)" fill="#d1ad1c" opacity="0.2"/>
      <circle id="타원_16" data-name="타원 16" cx="6" cy="6" r="6" transform="translate(0 20)" fill="#e3913f" opacity="0.2"/>
      <g id="마스크_그룹_1" data-name="마스크 그룹 1" transform="translate(72.014 28.7) rotate(45)" clip-path="url(#clip-path-2)">
        <g id="합치기_4" data-name="합치기 4" transform="translate(0 -2)">
          <path id="패스_1858" data-name="패스 1858" d="M15.5,18.5h0V.5h0Zm-9,0h0V.5h0Z" fill="#fff"/>
          <path id="패스_1859" data-name="패스 1859" d="M19,19H18V0h1Zm-3,0H15V0h1Zm-3,0H12V0h1Zm-3,0H9V0h1ZM7,19H6V0H7ZM4,19H3V0H4ZM1,19H0V0H1Z" fill="#f2df64"/>
        </g>
      </g>
    </g>
    <g id="icon" transform="translate(4)">
      <rect id="container-2" data-name="container" width="48" height="48" fill="none"/>
      <path id="패스_2084" data-name="패스 2084" d="M31.75,39.13a16.391,16.391,0,0,1-7.26,8.73H8.18a16.347,16.347,0,0,1,2.71-29.57V8.76h1.63v9.53a1.626,1.626,0,0,1-1.09,1.54,14.694,14.694,0,0,0-9.7,12.06c2.85-.74,9.77-1.91,15.84,1.85,6.22,3.85,12.11.32,13.46-.61a14.711,14.711,0,0,0-9.79-13.3,1.626,1.626,0,0,1-1.09-1.54V8.76h1.63v9.53a16.334,16.334,0,0,1,9.97,20.84" transform="translate(0 0.14)" fill="#bac8a6"/>
      <path id="패스_2085" data-name="패스 2085" d="M23.89,5.55V6.64a2.119,2.119,0,0,1-2.11,2.12H10.89A2.113,2.113,0,0,1,8.78,6.64V5.55a2.11,2.11,0,0,1,2.11-2.11H21.78a2.117,2.117,0,0,1,2.11,2.11" transform="translate(0.038)" fill="#667c68"/>
      <path id="패스_2086" data-name="패스 2086" d="M42.52,17.31h5.34V15.77H42.52Zm0,9.81h5.34V25.57H42.52Zm0-4.91h5.34V20.67H42.52Z" transform="translate(0.14 0.06)" fill="#bac8a6"/>
      <path id="패스_2087" data-name="패스 2087" d="M42.52,15.77v1.54h5.34v3.36H42.52v1.54h5.34v3.36H42.52v1.55h5.34V41.87a5.925,5.925,0,0,1-11.85,0V7.8H47.86v7.97Z" transform="translate(0.14 0.14)" fill="#bac8a6"/>
      <rect id="사각형_860" data-name="사각형 860" width="5.34" height="1.55" transform="translate(42.66 25.647)" fill="#fff"/>
      <rect id="사각형_861" data-name="사각형 861" width="5.34" height="1.54" transform="translate(42.66 15.818)" fill="#fff"/>
      <rect id="사각형_862" data-name="사각형 862" width="5.34" height="1.54" transform="translate(42.66 20.733)" fill="#fff"/>
      <path id="패스_2088" data-name="패스 2088" d="M38.05,3.2A3.2,3.2,0,1,1,34.85,0a3.2,3.2,0,0,1,3.2,3.2" transform="translate(0.107)" fill="#667c68"/>
      <path id="패스_2089" data-name="패스 2089" d="M31.52,10.28a2.66,2.66,0,1,1-2.66-2.66,2.657,2.657,0,0,1,2.66,2.66" transform="translate(0.086 0.025)" fill="#667c68"/>
      <path id="패스_2090" data-name="패스 2090" d="M21.24,19.83a1.626,1.626,0,0,1-1.09-1.54V8.76H12.52v9.53a1.626,1.626,0,0,1-1.09,1.54,14.694,14.694,0,0,0-9.7,12.06c2.85-.74,9.77-1.91,15.84,1.85,6.22,3.85,12.11.32,13.46-.61a14.711,14.711,0,0,0-9.79-13.3m-9.81,9.44a2.655,2.655,0,1,1,2.66-2.65,2.655,2.655,0,0,1-2.66,2.65" transform="translate(0 0.058)" fill="#fff"/>
      <path id="패스_2091" data-name="패스 2091" d="M14.09,26.62a2.655,2.655,0,1,1-2.66-2.66,2.657,2.657,0,0,1,2.66,2.66" transform="translate(0.029 0.079)" fill="#667c68"/>
    </g>
  </g>
</svg>
