<svg xmlns="http://www.w3.org/2000/svg" xmlns:xlink="http://www.w3.org/1999/xlink" width="72" height="50" viewBox="0 0 72 50">
  <defs>
    <clipPath id="clip-path">
      <rect id="mask" width="72" height="44" transform="translate(-0.497 -0.488)" fill="red" opacity="0.1"/>
    </clipPath>
    <clipPath id="clip-path-2">
      <circle id="타원_15" data-name="타원 15" cx="7.17" cy="7.17" r="7.17" fill="#eeca1a"/>
    </clipPath>
    <clipPath id="clip-path-3">
      <rect id="사각형_885" data-name="사각형 885" width="37.366" height="43.004" fill="none"/>
    </clipPath>
  </defs>
  <g id="ico_80_SKL_on" transform="translate(0.497 0.488)">
    <rect id="container" width="72" height="50" transform="translate(-0.497 -0.488)" fill="none" opacity="0.1"/>
    <g id="꾸밈요소" transform="translate(0 0)" clip-path="url(#clip-path)">
      <circle id="타원_14" data-name="타원 14" cx="10.755" cy="10.755" r="10.755" transform="translate(1.975 21.963)" fill="#d1ad1c" opacity="0.2"/>
      <circle id="타원_16" data-name="타원 16" cx="6" cy="6" r="6" transform="translate(-0.497 17.512)" fill="#e3913f" opacity="0.2"/>
      <g id="마스크_그룹_1" data-name="마스크 그룹 1" transform="translate(65.009 26.175) rotate(45)" clip-path="url(#clip-path-2)">
        <g id="합치기_4" data-name="합치기 4" transform="translate(0 -1.793)">
          <path id="패스_1858" data-name="패스 1858" d="M8.067,16.133h0V0h0ZM0,16.133H0V0H0Z" transform="translate(5.825 0.448)" fill="#fff"/>
          <path id="패스_1859" data-name="패스 1859" d="M17.029,17.029h-.9V0h.9Zm-2.689,0h-.9V0h.9Zm-2.689,0h-.9V0h.9Zm-2.689,0h-.9V0h.9Zm-2.689,0h-.9V0h.9Zm-2.689,0h-.9V0h.9Zm-2.689,0H0V0H.9Z" fill="#f2df64"/>
        </g>
      </g>
    </g>
    <g id="icon" transform="translate(17.633 0.452)">
      <g id="그룹_1084" data-name="그룹 1084" clip-path="url(#clip-path-3)">
        <path id="패스_2153" data-name="패스 2153" d="M32.139,3.781H13.514l.26.17a.642.642,0,0,1,.3.493.648.648,0,0,1-.188.547L4.525,14.357a.672.672,0,0,1-.475.2H3.96a.685.685,0,0,1-.439-.251V37.48A5.919,5.919,0,0,0,9.427,43.4H31.816a5.921,5.921,0,0,0,5.915-5.915V9.374a5.611,5.611,0,0,0-5.593-5.593m.188,12.96a1.379,1.379,0,0,1-1.371,1.38,1.347,1.347,0,0,1-1.058-.5l-4.741-5.7a1.391,1.391,0,0,1,.179-1.936,1.394,1.394,0,0,1,.887-.314h4.732a1.371,1.371,0,0,1,1.371,1.371ZM18.838,24.314l-3.979,4.912h3.979V30H13.756v-.726l3.953-4.938H14.043v-.771h4.795ZM20.783,30H19.9V23.561h.878Zm6.023-.654a2.919,2.919,0,0,1-3.908.143,3.584,3.584,0,0,1-.986-2.769,3.554,3.554,0,0,1,.744-2.339,2.71,2.71,0,0,1,2.214-.986,2.57,2.57,0,0,1,1.873.645,2.289,2.289,0,0,1,.744,1.461h-.851a1.729,1.729,0,0,0-.565-.986,1.772,1.772,0,0,0-1.192-.367,1.892,1.892,0,0,0-1.506.672A3.123,3.123,0,0,0,22.8,26.86a3.056,3.056,0,0,0,.52,1.837,1.809,1.809,0,0,0,1.551.7,1.606,1.606,0,0,0,1.434-.735,2.83,2.83,0,0,0,.394-1.022h.851a2.99,2.99,0,0,1-.744,1.7" transform="translate(-0.365 -0.392)" fill="#bac8a6"/>
        <path id="패스_2154" data-name="패스 2154" d="M13.714,4.052a.648.648,0,0,1-.188.547L4.16,13.965a.672.672,0,0,1-.475.2h-.09a.685.685,0,0,1-.439-.251.775.775,0,0,1-.063-.09L1.247,10.5a.668.668,0,0,1,.125-.816l.484-.466L.171,7.35a.683.683,0,0,1,.036-.941L6.768.18A.68.68,0,0,1,7.7.189L9.51,1.946l.179-.17a.676.676,0,0,1,.825-.081l2.635,1.694.26.17a.642.642,0,0,1,.3.493" transform="translate(0 0)" fill="#667c68"/>
        <path id="패스_2155" data-name="패스 2155" d="M20.221,26.659l-3.737,4.607h3.737v1.219h-5.53V31.454L18.4,26.82H14.977V25.6h5.243Z" transform="translate(-1.524 -2.656)" fill="#39393a"/>
        <rect id="사각형_884" data-name="사각형 884" width="1.326" height="6.883" transform="translate(19.315 22.945)" fill="#39393a"/>
        <path id="패스_2156" data-name="패스 2156" d="M29.9,29.659l-.027.251a3.249,3.249,0,0,1-.8,1.828,3.159,3.159,0,0,1-4.23.161,3.85,3.85,0,0,1-1.058-2.94,3.8,3.8,0,0,1,.8-2.483,2.93,2.93,0,0,1,2.384-1.067A2.785,2.785,0,0,1,29,26.119a2.511,2.511,0,0,1,.816,1.6l.027.242H28.559l-.036-.179a1.558,1.558,0,0,0-.493-.86,1.575,1.575,0,0,0-1.049-.314,1.672,1.672,0,0,0-1.335.592,2.95,2.95,0,0,0-.52,1.9,2.838,2.838,0,0,0,.475,1.7,1.579,1.579,0,0,0,1.371.609,1.375,1.375,0,0,0,1.246-.636,2.575,2.575,0,0,0,.367-.941l.036-.179Z" transform="translate(-2.468 -2.636)" fill="#39393a"/>
      </g>
    </g>
  </g>
</svg>
