<svg xmlns="http://www.w3.org/2000/svg" width="72" height="50" viewBox="0 0 72 50">
  <g id="ico_80_SKI_off" transform="translate(0.497)">
    <rect id="container" width="72" height="50" transform="translate(-0.497)" fill="none" opacity="0.1"/>
    <g id="icon" transform="translate(16.598 2.689)">
      <g id="그룹_1065" data-name="그룹 1065" transform="translate(0 0)">
        <path id="패스_1810" data-name="패스 1810" d="M36.827,19.163A18.414,18.414,0,1,0,12.386,36.569a2,2,0,0,0,.448.825,2,2,0,0,0-.52,1.344v1.111a2.02,2.02,0,0,0,2.017,2.017h1.326A3.543,3.543,0,0,0,17.522,43.5a3.6,3.6,0,0,0,1.246.233,3.563,3.563,0,0,0,3.119-1.864H23.2a2.02,2.02,0,0,0,2.017-2.017V38.738a2.032,2.032,0,0,0-.511-1.344,1.974,1.974,0,0,0,.493-1.111A18.436,18.436,0,0,0,36.827,19.163M23.876,36.049a.671.671,0,0,1-.672.672v1.344a.671.671,0,0,1,.672.672v1.111a.671.671,0,0,1-.672.672H20.99l-.161.439a2.2,2.2,0,0,1-4.114,0l-.161-.439H14.331a.677.677,0,0,1-.672-.672V38.738a.677.677,0,0,1,.672-.672V36.721a.677.677,0,0,1-.672-.672V34.095a.671.671,0,0,1,.672-.672H23.2a.666.666,0,0,1,.672.672Zm-.672-3.97H14.331a2.014,2.014,0,0,0-2.017,2.017v1.2A17.236,17.236,0,0,1,18.409,1.937V1.928A17.253,17.253,0,0,1,35.644,19.163v.009A17.236,17.236,0,0,1,25.221,35.009v-.914A2.014,2.014,0,0,0,23.2,32.078" transform="translate(0 -0.078)" fill="#fff"/>
        <path id="패스_1811" data-name="패스 1811" d="M20.25,28.064v6.292H19.067V28.064c-7.645.574-7.009-5.1-7.009-5.1,5-.072,6.767,2.752,7.349,4.2a.612.612,0,0,1,.5,0c.574-1.452,2.339-4.275,7.349-4.2,0,0,.636,5.673-7.009,5.1" transform="translate(-1.25 -2.382)" fill="#fff"/>
        <path id="패스_1812" data-name="패스 1812" d="M42.09,11.651a1.233,1.233,0,0,1-.229-.022,1.254,1.254,0,0,1-1-1.462l.734-3.655a1.425,1.425,0,0,1-.889-.332,1.316,1.316,0,0,1-.141-1.855L43.94.435A1.261,1.261,0,0,1,45.12.021a1.254,1.254,0,0,1,1,1.462l-.735,3.655.026.687L45.4,5.153A1.315,1.315,0,0,1,46.42,7.324l-3.379,3.892a1.256,1.256,0,0,1-.951.435m-.066-1.314h0ZM41.679,5.2a1.289,1.289,0,0,1,1.257,1.3,1.382,1.382,0,0,1-.024.272l-.664,3.307L45.358,6.5a1.363,1.363,0,0,1-1.314-1.347,1.47,1.47,0,0,1,.023-.266l.666-3.312L41.58,5.2c.033,0,.066,0,.1,0M45.4,6.446h0Zm-.444-5.134h0Z" transform="translate(-4.175 0)" fill="#fff"/>
      </g>
    </g>
  </g>
</svg>
