<svg id="ico_80_SKE_off" xmlns="http://www.w3.org/2000/svg" width="72" height="50" viewBox="0 0 72 50">
  <path id="container" d="M.01,0H71.98V50H.01Z" transform="translate(0.02)" fill="red" opacity="0"/>
  <g id="icon" transform="translate(17.707 4)">
    <path id="패스_1836" data-name="패스 1836" d="M38.234,9.608l-.807-6.121a.668.668,0,0,0-.663-.583h-1.7a.677.677,0,0,0-.672.672v6.453a1.876,1.876,0,0,0,.063.457,1.949,1.949,0,0,0,1.882,1.47,1.8,1.8,0,0,0,.484-.063.58.58,0,0,0,.117-.036V31.916a1.618,1.618,0,1,1-3.236,0v-19.6a2.962,2.962,0,0,0-2.967-2.958H29.317V5.808A5.808,5.808,0,0,0,23.5,0H8.255A5.816,5.816,0,0,0,2.429,5.808V38.091a2.465,2.465,0,0,0,.036,4.929H29.29a2.465,2.465,0,0,0,.027-4.929V10.7h1.416a1.62,1.62,0,0,1,1.622,1.613v19.6a2.962,2.962,0,1,0,5.924,0V10.137a1.531,1.531,0,0,0-.045-.529M3.773,5.808A4.479,4.479,0,0,1,8.255,1.344H23.5a4.471,4.471,0,0,1,4.472,4.463V38.028H3.773ZM30.41,40.556a1.121,1.121,0,0,1-1.12,1.12H2.465a1.12,1.12,0,1,1,0-2.241H29.29a1.121,1.121,0,0,1,1.12,1.12m6.077-29.962a.608.608,0,0,1-.735-.439.692.692,0,0,1-.018-.134V4.248h.439l.744,5.611a.883.883,0,0,1,.018.152v.018a.611.611,0,0,1-.448.565" fill="#fff"/>
    <path id="패스_1837" data-name="패스 1837" d="M24.64,15.062H8.508A1.794,1.794,0,0,1,6.715,13.27V8.789A1.794,1.794,0,0,1,8.508,7H24.64a1.794,1.794,0,0,1,1.793,1.793V13.27a1.794,1.794,0,0,1-1.793,1.793M8.508,8.34a.449.449,0,0,0-.448.448V13.27a.449.449,0,0,0,.448.448H24.64a.449.449,0,0,0,.448-.448V8.789a.449.449,0,0,0-.448-.448Z" transform="translate(-0.697 -0.726)" fill="#fff"/>
    <path id="패스_1838" data-name="패스 1838" d="M17.515,35.846a6.05,6.05,0,1,1,6.05-6.05,6.057,6.057,0,0,1-6.05,6.05m0-10.755A4.705,4.705,0,1,0,22.22,29.8a4.711,4.711,0,0,0-4.705-4.705" transform="translate(-1.189 -2.463)" fill="#fff"/>
    <path id="패스_1839" data-name="패스 1839" d="M15.732,12.09H14.387a.672.672,0,0,1,0-1.344h1.344a.672.672,0,0,1,0,1.344" transform="translate(-1.423 -1.115)" fill="#fff"/>
    <path id="패스_1840" data-name="패스 1840" d="M20.732,12.09H19.387a.672.672,0,0,1,0-1.344h1.344a.672.672,0,0,1,0,1.344" transform="translate(-1.941 -1.115)" fill="#fff"/>
    <path id="패스_1841" data-name="패스 1841" d="M25.732,12.09H24.387a.672.672,0,0,1,0-1.344h1.344a.672.672,0,0,1,0,1.344" transform="translate(-2.46 -1.115)" fill="#fff"/>
    <path id="패스_1842" data-name="패스 1842" d="M10.732,12.09H9.387a.672.672,0,0,1,0-1.344h1.344a.672.672,0,1,1,0,1.344" transform="translate(-0.904 -1.115)" fill="#fff"/>
    <rect id="사각형_828" data-name="사각형 828" width="38.286" height="43.021" fill="none"/>
  </g>
</svg>
