<svg id="ico_80_SKI_off" xmlns="http://www.w3.org/2000/svg" width="80" height="56" viewBox="0 0 80 56">
  <rect id="container" width="80" height="56" fill="none" opacity="0.1"/>
  <g id="icon" transform="translate(18 3)">
    <rect id="container-2" data-name="container" width="48" height="48" transform="translate(-1 1)" fill="none"/>
    <path id="패스_1810" data-name="패스 1810" d="M41.09,21.294a20.545,20.545,0,1,0-27.27,19.42,2.233,2.233,0,0,0,.5.92,2.226,2.226,0,0,0-.58,1.5v1.24a2.253,2.253,0,0,0,2.25,2.25h1.48a3.953,3.953,0,0,0,2.08,1.82,4.019,4.019,0,0,0,1.39.26,3.975,3.975,0,0,0,3.48-2.08h1.47a2.253,2.253,0,0,0,2.25-2.25v-1.24a2.267,2.267,0,0,0-.57-1.5,2.2,2.2,0,0,0,.55-1.24,20.57,20.57,0,0,0,12.97-19.1M26.64,40.134a.749.749,0,0,1-.75.75v1.5a.749.749,0,0,1,.75.75v1.24a.749.749,0,0,1-.75.75H23.42l-.18.49a2.453,2.453,0,0,1-4.59,0l-.18-.49H15.99a.755.755,0,0,1-.75-.75v-1.24a.755.755,0,0,1,.75-.75v-1.5a.755.755,0,0,1-.75-.75v-2.18a.749.749,0,0,1,.75-.75h9.9a.743.743,0,0,1,.75.75Zm-.75-4.43h-9.9a2.247,2.247,0,0,0-2.25,2.25v1.34a19.231,19.231,0,0,1,6.8-37.22v-.01a19.25,19.25,0,0,1,19.23,19.23v.01a19.231,19.231,0,0,1-11.63,17.67v-1.02a2.247,2.247,0,0,0-2.25-2.25" transform="translate(-1)" fill="#667c68"/>
    <path id="패스_1811" data-name="패스 1811" d="M21.2,28.654v7.02H19.88v-7.02c-8.53.64-7.82-5.69-7.82-5.69,5.58-.08,7.55,3.07,8.2,4.69a.683.683,0,0,1,.56,0c.64-1.62,2.61-4.77,8.2-4.69,0,0,.71,6.33-7.82,5.69" transform="translate(-1 0.038)" fill="#667c68"/>
    <path id="패스_1812" data-name="패스 1812" d="M42.3,13a1.376,1.376,0,0,1-.255-.024,1.4,1.4,0,0,1-1.119-1.631l.819-4.078a1.59,1.59,0,0,1-.992-.37,1.469,1.469,0,0,1-.157-2.07L44.368.485A1.407,1.407,0,0,1,45.684.023,1.4,1.4,0,0,1,46.8,1.654l-.82,4.078.029.767L46,5.749a1.468,1.468,0,0,1,1.133,2.423l-3.77,4.342A1.4,1.4,0,0,1,42.3,13m-.074-1.466h0ZM41.845,5.8a1.439,1.439,0,0,1,1.4,1.45,1.542,1.542,0,0,1-.027.3l-.741,3.69,3.47-4a1.521,1.521,0,0,1-1.466-1.5,1.64,1.64,0,0,1,.026-.3l.743-3.695L41.735,5.807c.037,0,.074-.005.11-.005M46,7.192h0ZM45.5,1.464h0Z" transform="translate(-1)" fill="#667c68"/>
  </g>
</svg>
