<svg xmlns="http://www.w3.org/2000/svg" xmlns:xlink="http://www.w3.org/1999/xlink" width="80" height="56" viewBox="0 0 80 56">
  <defs>
    <clipPath id="clip-path">
      <rect id="mask" width="80" height="48" fill="red" opacity="0.1"/>
    </clipPath>
    <clipPath id="clip-path-2">
      <circle id="타원_15" data-name="타원 15" cx="8" cy="8" r="8" fill="#eeca1a"/>
    </clipPath>
  </defs>
  <g id="ico_80_SKTI_on" transform="translate(12)">
    <rect id="container" width="80" height="56" transform="translate(-12)" fill="none" opacity="0.1"/>
    <g id="꾸밈요소" transform="translate(-12)" clip-path="url(#clip-path)">
      <circle id="타원_14" data-name="타원 14" cx="12" cy="12" r="12" transform="translate(1.684 24)" fill="#d1ad1c" opacity="0.2"/>
      <circle id="타원_16" data-name="타원 16" cx="6" cy="6" r="6" transform="translate(0 20)" fill="#e3913f" opacity="0.2"/>
      <g id="마스크_그룹_1" data-name="마스크 그룹 1" transform="translate(72.014 28.7) rotate(45)" clip-path="url(#clip-path-2)">
        <g id="합치기_4" data-name="합치기 4" transform="translate(0 -2)">
          <path id="패스_1858" data-name="패스 1858" d="M15.5,18.5h0V.5h0Zm-9,0h0V.5h0Z" fill="#fff"/>
          <path id="패스_1859" data-name="패스 1859" d="M19,19H18V0h1Zm-3,0H15V0h1Zm-3,0H12V0h1Zm-3,0H9V0h1ZM7,19H6V0H7ZM4,19H3V0H4ZM1,19H0V0H1Z" fill="#f2df64"/>
        </g>
      </g>
    </g>
    <g id="icon" transform="translate(5 4)">
      <rect id="사각형_1418" data-name="사각형 1418" width="48" height="48.001" fill="none"/>
      <path id="패스_2105" data-name="패스 2105" d="M12.971,15a1,1,0,1,0,1,1,1,1,0,0,0-1-1" fill="#fff"/>
      <path id="패스_2106" data-name="패스 2106" d="M17.971,15a1,1,0,1,0,1,1,1,1,0,0,0-1-1" fill="#fff"/>
      <path id="패스_2107" data-name="패스 2107" d="M22.971,15a1,1,0,1,0,1,1,1,1,0,0,0-1-1" fill="#fff"/>
      <path id="패스_2108" data-name="패스 2108" d="M27.971,15a1,1,0,1,0,1,1,1,1,0,0,0-1-1" fill="#fff"/>
      <path id="패스_2109" data-name="패스 2109" d="M32.971,15a1,1,0,1,0,1,1,1,1,0,0,0-1-1" fill="#fff"/>
      <path id="패스_2110" data-name="패스 2110" d="M45.241,46.64a3.876,3.876,0,0,1-2.57-.95,2.882,2.882,0,0,0-3.76,0,3.911,3.911,0,0,1-4.54.41c6.6-11.07,8.21-17.31,8.59-19.49a1.9,1.9,0,0,0-1.46-2.05l-3.52-1.08V14a3,3,0,0,0-3-3h-1V8a3,3,0,0,0-3-3h-3V3a3,3,0,0,0-3-3h-4a3,3,0,0,0-3,3V5h-3a3,3,0,0,0-3,3v3h-1a3,3,0,0,0-3,3v9.48l-3.52,1.08A1.9,1.9,0,0,0,3,26.61c.38,2.18,1.99,8.42,8.59,19.49a3.911,3.911,0,0,1-4.54-.41,2.882,2.882,0,0,0-3.76,0,3.876,3.876,0,0,1-2.57.95h-.1A.682.682,0,0,0,.721,48,5.419,5.419,0,0,0,4.3,46.67a1.345,1.345,0,0,1,1.73,0,5.5,5.5,0,0,0,6.88.23h.01a3.253,3.253,0,0,0,.29-.23c.01-.01.03-.02.04-.03a.01.01,0,0,1,.01-.01,1.339,1.339,0,0,1,1.68.04,5.518,5.518,0,0,0,7.18,0,1.331,1.331,0,0,1,1.72,0,5.518,5.518,0,0,0,7.18,0,1.324,1.324,0,0,1,1.65-.05.218.218,0,0,1,.08.05,2.551,2.551,0,0,0,.38.29,5.518,5.518,0,0,0,6.8-.29,1.345,1.345,0,0,1,1.73,0A5.419,5.419,0,0,0,45.241,48h.1a.682.682,0,0,0-.1-1.36M33.971,16a1,1,0,1,1-1-1,1,1,0,0,1,1,1m-5,0a1,1,0,1,1-1-1,1,1,0,0,1,1,1m-5,0a1,1,0,1,1-1-1,1,1,0,0,1,1,1m-5,0a1,1,0,1,1-1-1,1,1,0,0,1,1,1m-6-1a1,1,0,1,1,0,2,1,1,0,0,1,0-2M30,45.69a3.943,3.943,0,0,1-5.14,0,2.882,2.882,0,0,0-3.76,0,3.943,3.943,0,0,1-5.14,0,2.91,2.91,0,0,0-3.17-.4C6.421,34.54,4.871,28.53,4.5,26.42a.627.627,0,0,1,.49-.69l17.24-5.28V42.4a.769.769,0,0,0,1.5,0V20.45l17.24,5.28a.627.627,0,0,1,.49.69c-.37,2.11-1.91,8.13-8.3,18.87a2.894,2.894,0,0,0-3.16.4" fill="#bac8a6"/>
      <path id="패스_2111" data-name="패스 2111" d="M41.461,26.42c-.37,2.11-1.91,8.13-8.3,18.87a2.894,2.894,0,0,0-3.16.4,3.943,3.943,0,0,1-5.14,0,2.882,2.882,0,0,0-3.76,0,3.943,3.943,0,0,1-5.14,0,2.91,2.91,0,0,0-3.17-.4C6.421,34.54,4.871,28.53,4.5,26.42a.627.627,0,0,1,.49-.69l17.24-5.28V42.4a.769.769,0,0,0,1.5,0V20.45l17.24,5.28a.627.627,0,0,1,.49.69" fill="#667c68"/>
    </g>
  </g>
</svg>
