<svg xmlns="http://www.w3.org/2000/svg" xmlns:xlink="http://www.w3.org/1999/xlink" width="72" height="50" viewBox="0 0 72 50">
  <defs>
    <clipPath id="clip-path">
      <rect id="mask" width="72" height="43" transform="translate(-0.497)" fill="red" opacity="0.1"/>
    </clipPath>
    <clipPath id="clip-path-2">
      <circle id="타원_15" data-name="타원 15" cx="7.17" cy="7.17" r="7.17" fill="#eeca1a"/>
    </clipPath>
  </defs>
  <g id="ico_80_SKI_on" transform="translate(0.497)">
    <rect id="container" width="72" height="50" transform="translate(-0.497)" fill="none" opacity="0.1"/>
    <g id="꾸밈요소" transform="translate(0)" clip-path="url(#clip-path)">
      <circle id="타원_14" data-name="타원 14" cx="10.755" cy="10.755" r="10.755" transform="translate(1.975 21.51)" fill="#d1ad1c" opacity="0.2"/>
      <ellipse id="타원_16" data-name="타원 16" cx="5.5" cy="5" rx="5.5" ry="5" transform="translate(-0.497 18)" fill="#e3913f" opacity="0.2"/>
      <g id="마스크_그룹_1" data-name="마스크 그룹 1" transform="translate(65.009 25.723) rotate(45)" clip-path="url(#clip-path-2)">
        <g id="합치기_4" data-name="합치기 4" transform="translate(0 -1.793)" fill="#fff">
          <path d="M16.133,17.029V0h.9V17.029Zm-2.689,0V0h.9V17.029Zm-2.689,0V0h.9V17.029Zm-2.689,0V0h.9V17.029Zm-2.689,0V0h.9V17.029Zm-2.689,0V0h.9V17.029ZM0,17.029V0H.9V17.029Z" stroke="none"/>
          <path d="M 17.02887916564941 17.02887535095215 L 16.13269996643066 17.02887535095215 L 16.13269996643066 -4.231872480886523e-06 L 17.02887916564941 -4.231872480886523e-06 L 17.02887916564941 17.02887535095215 Z M 14.34036922454834 17.02887535095215 L 13.44339942932129 17.02887535095215 L 13.44339942932129 -4.231872480886523e-06 L 14.34036922454834 -4.231872480886523e-06 L 14.34036922454834 17.02887535095215 Z M 11.65103912353516 17.02887535095215 L 10.75488948822021 17.02887535095215 L 10.75488948822021 -4.231872480886523e-06 L 11.65103912353516 -4.231872480886523e-06 L 11.65103912353516 17.02887535095215 Z M 8.962529182434082 17.02887535095215 L 8.066349983215332 17.02887535095215 L 8.066349983215332 -4.231872480886523e-06 L 8.962529182434082 -4.231872480886523e-06 L 8.962529182434082 17.02887535095215 Z M 6.274019718170166 17.02887535095215 L 5.377049446105957 17.02887535095215 L 5.377049446105957 -4.231872480886523e-06 L 6.274019718170166 -4.231872480886523e-06 L 6.274019718170166 17.02887535095215 Z M 3.584689617156982 17.02887535095215 L 2.688539505004883 17.02887535095215 L 2.688539505004883 -4.231872480886523e-06 L 3.584689617156982 -4.231872480886523e-06 L 3.584689617156982 17.02887535095215 Z M 0.8961795568466187 17.02887535095215 L -4.17175300526651e-07 17.02887535095215 L -4.17175300526651e-07 -4.231872480886523e-06 L 0.8961795568466187 -4.231872480886523e-06 L 0.8961795568466187 17.02887535095215 Z" stroke="none" fill="#f2df64"/>
        </g>
      </g>
    </g>
    <g id="icon" transform="translate(16.598 3.316)">
      <g id="그룹_1066" data-name="그룹 1066" transform="translate(0 0)">
        <path id="패스_1805" data-name="패스 1805" d="M18.418,0a18.415,18.415,0,0,0-5.252,36.066,1.322,1.322,0,0,1,.717-.215,1.35,1.35,0,0,1-1.335-1.219A17.238,17.238,0,0,1,18.409,1.186V1.177a17.247,17.247,0,0,1,6.677,33.144v.188a1.348,1.348,0,0,1-1.344,1.344.993.993,0,0,1,.394.072h.009A18.419,18.419,0,0,0,18.418,0" transform="translate(0 0)" fill="#bac8a6"/>
        <path id="패스_1806" data-name="패스 1806" d="M34.212,18.764a15.453,15.453,0,0,1-8.828,13.964,1.337,1.337,0,0,0-1.3-1.013H19.343V25.351c7.645.574,7.009-5.1,7.009-5.1-5.01-.072-6.776,2.76-7.349,4.212a.533.533,0,0,0-.5,0c-.574-1.452-2.33-4.284-7.349-4.212,0,0-.636,5.673,7.009,5.1v6.363H14.225a1.348,1.348,0,0,0-1.344,1.344,15.458,15.458,0,1,1,21.331-14.3" transform="translate(-0.342 -0.343)" fill="#bac8a6"/>
        <path id="패스_1807" data-name="패스 1807" d="M24.057,45a3.582,3.582,0,0,1-6.937,0Z" transform="translate(-1.776 -4.669)" fill="#bac8a6"/>
        <path id="패스_1808" data-name="패스 1808" d="M26.291,34.689a1.346,1.346,0,0,1,.045.332v1.793a1.348,1.348,0,0,1-1.344,1.344.993.993,0,0,1,.394.072h.009a1.323,1.323,0,0,1,.941,1.273v1.793a1.348,1.348,0,0,1-1.344,1.344H15.133a1.354,1.354,0,0,1-1.344-1.344V39.5a1.362,1.362,0,0,1,1.344-1.344A1.35,1.35,0,0,1,13.8,36.938a.551.551,0,0,1-.009-.125V35.02a1.348,1.348,0,0,1,1.344-1.344h3.935V27.313c-7.645.574-7.009-5.1-7.009-5.1,5.019-.072,6.776,2.76,7.349,4.212a.533.533,0,0,1,.5,0c.574-1.452,2.339-4.284,7.349-4.212,0,0,.636,5.673-7.009,5.1v6.363h4.741a1.337,1.337,0,0,1,1.3,1.013" transform="translate(-1.25 -2.304)" fill="#667c68"/>
        <path id="패스_1809" data-name="패스 1809" d="M45.495,5.154h0a.689.689,0,0,1-.685-.82L45.542.688A.582.582,0,0,0,44.528.2L41.153,4.092a.643.643,0,0,0,.5,1.061.689.689,0,0,1,.7.682.648.648,0,0,1-.013.138L41.6,9.619a.582.582,0,0,0,1.014.485L45.99,6.215a.643.643,0,0,0-.5-1.061" transform="translate(-4.253 0)" fill="#597383"/>
      </g>
    </g>
  </g>
</svg>
