<svg xmlns="http://www.w3.org/2000/svg" xmlns:xlink="http://www.w3.org/1999/xlink" width="72" height="50" viewBox="0 0 72 50">
  <defs>
    <clipPath id="clip-path">
      <rect id="사각형_865" data-name="사각형 865" width="43.021" height="41.228" fill="none"/>
    </clipPath>
  </defs>
  <g id="ico_80_SKO_off" transform="translate(0 -0.234)">
    <path id="container" d="M.014,0h72V50h-72Z" transform="translate(-0.014 0.234)" fill="red" opacity="0"/>
    <g id="icon" transform="translate(14.34 4.481)">
      <g id="그룹_1070" data-name="그룹 1070" clip-path="url(#clip-path)">
        <path id="패스_2092" data-name="패스 2092" d="M41.228,7.17H37.643V5.378a2.685,2.685,0,0,0-2.689-2.689h-1.12V0H32.489V2.689h-1.12A2.691,2.691,0,0,0,28.68,5.378V7.17H14.34V5.378a2.685,2.685,0,0,0-2.689-2.689h-1.12V0H9.187V2.689H8.066A2.691,2.691,0,0,0,5.378,5.378V7.17H1.793A1.792,1.792,0,0,0,0,8.963v3.585A1.8,1.8,0,0,0,1.793,14.34V36.415A5.124,5.124,0,0,0,7.17,41.228H35.85a5.124,5.124,0,0,0,5.378-4.813V14.34a1.792,1.792,0,0,0,1.793-1.793V8.963A1.786,1.786,0,0,0,41.228,7.17m-11.2-1.793a1.343,1.343,0,0,1,1.344-1.344h3.585A1.343,1.343,0,0,1,36.3,5.378V6.722H30.025Zm-23.3,0A1.343,1.343,0,0,1,8.066,4.033h3.585A1.343,1.343,0,0,1,13,5.378V6.722H6.722ZM39.884,36.415a3.79,3.79,0,0,1-4.033,3.469H7.17a3.79,3.79,0,0,1-4.033-3.469V14.484H39.884Zm1.793-23.867a.449.449,0,0,1-.448.448H1.793a.455.455,0,0,1-.448-.448V8.963a.449.449,0,0,1,.448-.448H41.228a.444.444,0,0,1,.448.448Z" transform="translate(0 0)" fill="#fff"/>
        <rect id="사각형_864" data-name="사각형 864" width="5.378" height="1.793" transform="translate(7.171 26.287)" fill="#fff"/>
        <path id="패스_2093" data-name="패스 2093" d="M39.377,29.126v1.793H37.584v1.793H35.792V30.919H34V29.126h1.793V27.334h1.793v1.793Z" transform="translate(-3.527 -2.836)" fill="#fff"/>
        <path id="패스_2094" data-name="패스 2094" d="M25.627,29.734h0a.691.691,0,0,1-.7-.683.7.7,0,0,1,.013-.137l.732-3.645a.582.582,0,0,0-1.014-.485l-3.375,3.889a.643.643,0,0,0,.5,1.061.689.689,0,0,1,.7.682.649.649,0,0,1-.013.138L21.732,34.2a.582.582,0,0,0,1.014.485l3.376-3.889a.643.643,0,0,0-.5-1.061" transform="translate(-2.192 -2.55)" fill="#fff"/>
      </g>
    </g>
  </g>
</svg>
