<svg xmlns="http://www.w3.org/2000/svg" xmlns:xlink="http://www.w3.org/1999/xlink" width="72" height="50" viewBox="0 0 72 50">
  <defs>
    <clipPath id="clip-path">
      <rect id="사각형_859" data-name="사각형 859" width="42.958" height="42.962" fill="none"/>
    </clipPath>
  </defs>
  <g id="ico_80_SKG_off" transform="translate(-0.308 0.177)">
    <path id="container" d="M.014,0h72V50h-72Z" transform="translate(0.294 -0.177)" fill="red" opacity="0"/>
    <g id="icon" transform="translate(14.34 3.585)">
      <g id="그룹_1067" data-name="그룹 1067" clip-path="url(#clip-path)">
        <path id="패스_2079" data-name="패스 2079" d="M19.556,16.773V8.223a1.893,1.893,0,0,0,1.891-1.9V5.346a1.891,1.891,0,0,0-1.891-1.891H9.778A1.9,1.9,0,0,0,7.887,5.346v.977a1.9,1.9,0,0,0,1.891,1.9v8.55A14.673,14.673,0,0,0,7.349,43.321H21.985a14.671,14.671,0,0,0-2.429-26.547M9.231,6.323V5.346A.543.543,0,0,1,9.778,4.8h9.778a.543.543,0,0,1,.547.547v.977a.551.551,0,0,1-.547.556H9.778a.551.551,0,0,1-.547-.556m12.35,35.528H7.753a13.157,13.157,0,0,1-5.539-6.856,13.005,13.005,0,0,1-.753-4.589c2-.556,8.308-1.9,13.605,1.38a11.358,11.358,0,0,0,6.059,1.757,14.154,14.154,0,0,0,6.7-1.837,13.157,13.157,0,0,1-6.238,10.146M15.774,30.639C10.343,27.278,4.15,28.317,1.568,28.972a13.168,13.168,0,0,1,8.7-10.809,1.481,1.481,0,0,0,.977-1.389V8.223h6.838v8.55a1.472,1.472,0,0,0,.977,1.389A13.2,13.2,0,0,1,27.856,30.1c-1.228.842-6.5,4-12.082.538" transform="translate(0 -0.359)" fill="#fff"/>
        <path id="패스_2080" data-name="패스 2080" d="M34.579,5.744A2.872,2.872,0,1,1,37.45,2.873a2.875,2.875,0,0,1-2.872,2.872m0-4.4a1.528,1.528,0,1,0,1.527,1.528,1.529,1.529,0,0,0-1.527-1.528" transform="translate(-3.289 0)" fill="#fff"/>
        <path id="패스_2081" data-name="패스 2081" d="M28.635,12.4a2.383,2.383,0,1,1,2.383-2.383A2.386,2.386,0,0,1,28.635,12.4m0-3.422a1.039,1.039,0,1,0,1.039,1.039,1.039,1.039,0,0,0-1.039-1.039" transform="translate(-2.723 -0.793)" fill="#fff"/>
        <path id="패스_2082" data-name="패스 2082" d="M11.181,28.766a2.383,2.383,0,1,1,2.383-2.383,2.385,2.385,0,0,1-2.383,2.383m0-3.422a1.039,1.039,0,1,0,1.039,1.039,1.039,1.039,0,0,0-1.039-1.039" transform="translate(-0.913 -2.49)" fill="#fff"/>
        <path id="패스_2083" data-name="패스 2083" d="M36.07,7.815V38.4a5.315,5.315,0,1,0,10.63,0V7.815ZM45.355,38.4a3.97,3.97,0,1,1-7.941,0V9.159h7.941v5.808H41.914v1.389h3.442v3.011H41.914v1.38h3.442v3.02H41.914v1.38h3.442Z" transform="translate(-3.742 -0.811)" fill="#fff"/>
      </g>
    </g>
  </g>
</svg>
