<svg id="ico_80_SKTI_off" xmlns="http://www.w3.org/2000/svg" width="80" height="56" viewBox="0 0 80 56">
  <path id="container" d="M.014,0h80V56h-80Z" transform="translate(-0.014)" fill="red" opacity="0"/>
  <g id="icon" transform="translate(17.002 3.999)">
    <rect id="사각형_841" data-name="사각형 841" width="48" height="48.001" transform="translate(-0.002 0.001)" fill="none"/>
    <path id="패스_1884" data-name="패스 1884" d="M12.981,17a1,1,0,1,1,1-1,1,1,0,0,1-1,1m0-1.5,0,.5h0Z" transform="translate(-0.002 0.001)" fill="#667c68"/>
    <path id="패스_1885" data-name="패스 1885" d="M17.98,17a1,1,0,1,1,1-1,1,1,0,0,1-1,1m0-1.5v.5h0Z" transform="translate(-0.002 0.001)" fill="#667c68"/>
    <path id="패스_1886" data-name="패스 1886" d="M22.98,17a1,1,0,1,1,1-1,1,1,0,0,1-1,1m0-1.5v.5h0Z" transform="translate(-0.002 0.001)" fill="#667c68"/>
    <path id="패스_1887" data-name="패스 1887" d="M27.98,17a1,1,0,1,1,1-1,1,1,0,0,1-1,1m0-1.5v.5h0Z" transform="translate(-0.002 0.001)" fill="#667c68"/>
    <path id="패스_1888" data-name="패스 1888" d="M32.98,17a1,1,0,1,1,1-1,1,1,0,0,1-1,1m0-1.5v.5h0Z" transform="translate(-0.002 0.001)" fill="#667c68"/>
    <path id="패스_1889" data-name="패스 1889" d="M45.241,46.64a3.876,3.876,0,0,1-2.57-.95,2.882,2.882,0,0,0-3.76,0,3.911,3.911,0,0,1-4.54.41c6.6-11.07,8.21-17.31,8.59-19.49a1.9,1.9,0,0,0-1.46-2.05l-3.52-1.08V14a3,3,0,0,0-3-3h-1V8a3,3,0,0,0-3-3h-3V3a3,3,0,0,0-3-3h-4a3,3,0,0,0-3,3V5h-3a3,3,0,0,0-3,3v3h-1a3,3,0,0,0-3,3v9.48l-3.52,1.08A1.9,1.9,0,0,0,3,26.61c.38,2.18,1.99,8.42,8.59,19.49a3.911,3.911,0,0,1-4.54-.41,2.882,2.882,0,0,0-3.76,0,3.876,3.876,0,0,1-2.57.95h-.1A.682.682,0,0,0,.721,48,5.419,5.419,0,0,0,4.3,46.67a1.345,1.345,0,0,1,1.73,0,5.5,5.5,0,0,0,6.88.23h.01a3.253,3.253,0,0,0,.29-.23c.01-.01.03-.02.04-.03a.01.01,0,0,1,.01-.01,1.339,1.339,0,0,1,1.68.04,5.518,5.518,0,0,0,7.18,0,1.331,1.331,0,0,1,1.72,0,5.518,5.518,0,0,0,7.18,0,1.324,1.324,0,0,1,1.65-.05.218.218,0,0,1,.08.05,2.551,2.551,0,0,0,.38.29,5.518,5.518,0,0,0,6.8-.29,1.345,1.345,0,0,1,1.73,0A5.419,5.419,0,0,0,45.241,48h.1a.682.682,0,0,0-.1-1.36M19.481,3a1.5,1.5,0,0,1,1.5-1.5h4a1.5,1.5,0,0,1,1.5,1.5V5h-7Zm-6,5a1.5,1.5,0,0,1,1.5-1.5h16a1.5,1.5,0,0,1,1.5,1.5v3h-19Zm-4,6a1.5,1.5,0,0,1,1.5-1.5h24a1.5,1.5,0,0,1,1.5,1.5v9.02l-12.72-3.9a2.442,2.442,0,0,0-.6-.11h-.01a2.164,2.164,0,0,0-.36,0,2.364,2.364,0,0,0-.59.11l-12.72,3.9ZM30,45.69a3.943,3.943,0,0,1-5.14,0,2.882,2.882,0,0,0-3.76,0,3.943,3.943,0,0,1-5.14,0,2.91,2.91,0,0,0-3.17-.4C6.421,34.54,4.871,28.53,4.5,26.42a.627.627,0,0,1,.49-.69l17.24-5.28V42.4a.769.769,0,0,0,1.5,0V20.45l17.24,5.28a.627.627,0,0,1,.49.69c-.37,2.11-1.91,8.13-8.3,18.87a2.894,2.894,0,0,0-3.16.4" transform="translate(-0.002 0.001)" fill="#667c68"/>
  </g>
</svg>
