<svg xmlns="http://www.w3.org/2000/svg" xmlns:xlink="http://www.w3.org/1999/xlink" width="72" height="50" viewBox="0 0 72 50">
  <defs>
    <clipPath id="clip-path">
      <rect id="사각형_883" data-name="사각형 883" width="37.366" height="43.007" fill="none"/>
    </clipPath>
  </defs>
  <g id="ico_80_SKL_off" transform="translate(0)">
    <path id="container" d="M.01,0H71.98V50H.01Z" transform="translate(0.02)" fill="red" opacity="0"/>
    <g id="icon" transform="translate(17.167 1)">
      <g id="그룹_1082" data-name="그룹 1082" clip-path="url(#clip-path)">
        <path id="패스_2149" data-name="패스 2149" d="M31.764,3.392H13.14L10.514,1.7a.678.678,0,0,0-.834.081l-.179.17L7.7.193A.671.671,0,0,0,6.768.184L.207,6.413a.683.683,0,0,0-.036.941L1.856,9.218l-.484.466a.668.668,0,0,0-.125.816l1.846,3.325a.5.5,0,0,0,.054.072v23.2a5.921,5.921,0,0,0,5.915,5.915H31.451a5.921,5.921,0,0,0,5.915-5.915V8.985a5.613,5.613,0,0,0-5.6-5.593M1.614,6.942,7.225,1.609,8.533,2.873l-5.7,5.422ZM2.672,10.3l.592-.565,6.7-6.372.027-.027.233-.224,1.757,1.129L3.837,12.391Zm33.35,26.789a4.579,4.579,0,0,1-4.571,4.571H9.062a4.579,4.579,0,0,1-4.571-4.571V13.708l8.972-8.972h18.3a4.265,4.265,0,0,1,4.257,4.248Z" transform="translate(0 0)" fill="#fff"/>
        <path id="패스_2150" data-name="패스 2150" d="M33.268,8.845H28.527a2.726,2.726,0,0,0-2.088,4.463l4.732,5.7a2.718,2.718,0,0,0,4.813-1.739v-5.7a2.727,2.727,0,0,0-2.716-2.725m1.371,8.425a1.379,1.379,0,0,1-1.371,1.38,1.408,1.408,0,0,1-1.067-.5l-4.732-5.7a1.381,1.381,0,0,1,1.058-2.259h4.741a1.379,1.379,0,0,1,1.371,1.38ZM33.268,8.845H28.527a2.726,2.726,0,0,0-2.088,4.463l4.732,5.7a2.718,2.718,0,0,0,4.813-1.739v-5.7a2.727,2.727,0,0,0-2.716-2.725m1.371,8.425a1.379,1.379,0,0,1-1.371,1.38,1.408,1.408,0,0,1-1.067-.5l-4.732-5.7a1.381,1.381,0,0,1,1.058-2.259h4.741a1.379,1.379,0,0,1,1.371,1.38ZM33.268,8.845H28.527a2.726,2.726,0,0,0-2.088,4.463l4.732,5.7a2.718,2.718,0,0,0,4.813-1.739v-5.7a2.727,2.727,0,0,0-2.716-2.725m1.371,8.425a1.379,1.379,0,0,1-1.371,1.38,1.408,1.408,0,0,1-1.067-.5l-4.732-5.7a1.381,1.381,0,0,1,1.058-2.259h4.741a1.379,1.379,0,0,1,1.371,1.38ZM33.268,8.845H28.527a2.726,2.726,0,0,0-2.088,4.463l4.732,5.7a2.718,2.718,0,0,0,4.813-1.739v-5.7a2.727,2.727,0,0,0-2.716-2.725m1.371,8.425a1.379,1.379,0,0,1-1.371,1.38,1.408,1.408,0,0,1-1.067-.5l-4.732-5.7a1.381,1.381,0,0,1,1.058-2.259h4.741a1.379,1.379,0,0,1,1.371,1.38ZM33.268,8.845H28.527a2.726,2.726,0,0,0-2.088,4.463l4.732,5.7a2.718,2.718,0,0,0,4.813-1.739v-5.7a2.727,2.727,0,0,0-2.716-2.725m1.371,8.425a1.379,1.379,0,0,1-1.371,1.38,1.408,1.408,0,0,1-1.067-.5l-4.732-5.7a1.381,1.381,0,0,1,1.058-2.259h4.741a1.379,1.379,0,0,1,1.371,1.38ZM33.268,8.845H28.527a2.726,2.726,0,0,0-2.088,4.463l4.732,5.7a2.718,2.718,0,0,0,4.813-1.739v-5.7a2.727,2.727,0,0,0-2.716-2.725m1.371,8.425a1.379,1.379,0,0,1-1.371,1.38,1.408,1.408,0,0,1-1.067-.5l-4.732-5.7a1.381,1.381,0,0,1,1.058-2.259h4.741a1.379,1.379,0,0,1,1.371,1.38ZM33.268,8.845H28.527a2.726,2.726,0,0,0-2.088,4.463l4.732,5.7a2.718,2.718,0,0,0,4.813-1.739v-5.7a2.727,2.727,0,0,0-2.716-2.725m1.371,8.425a1.379,1.379,0,0,1-1.371,1.38,1.408,1.408,0,0,1-1.067-.5l-4.732-5.7a1.381,1.381,0,0,1,1.058-2.259h4.741a1.379,1.379,0,0,1,1.371,1.38Z" transform="translate(-2.678 -0.918)" fill="#fff"/>
        <path id="패스_2151" data-name="패스 2151" d="M20.216,26.658l-3.728,4.616h3.728v1.21h-5.53V31.462L18.4,26.819H14.982v-1.21h5.234Z" transform="translate(-1.524 -2.657)" fill="#fff"/>
        <rect id="사각형_882" data-name="사각형 882" width="1.326" height="6.874" transform="translate(19.32 22.952)" fill="#fff"/>
        <path id="패스_2152" data-name="패스 2152" d="M29.9,29.657l-.027.251a3.142,3.142,0,0,1-.807,1.828,3.136,3.136,0,0,1-4.212.161,3.782,3.782,0,0,1-1.067-2.94,3.794,3.794,0,0,1,.8-2.474,2.931,2.931,0,0,1,2.393-1.076A2.814,2.814,0,0,1,29,26.117a2.5,2.5,0,0,1,.807,1.6l.027.242H28.563l-.045-.17a1.583,1.583,0,0,0-.493-.869,1.564,1.564,0,0,0-1.04-.3,1.633,1.633,0,0,0-1.335.592,2.849,2.849,0,0,0-.52,1.9,2.838,2.838,0,0,0,.475,1.7,1.584,1.584,0,0,0,1.362.609,1.407,1.407,0,0,0,1.255-.645,2.717,2.717,0,0,0,.359-.941l.036-.179Z" transform="translate(-2.468 -2.636)" fill="#fff"/>
      </g>
    </g>
  </g>
</svg>
