<svg id="ico_80_SK_on" xmlns="http://www.w3.org/2000/svg" xmlns:xlink="http://www.w3.org/1999/xlink" width="80" height="56" viewBox="0 0 80 56">
  <defs>
    <clipPath id="clip-path">
      <rect id="mask" width="80" height="48" fill="red" opacity="0.1"/>
    </clipPath>
    <clipPath id="clip-path-2">
      <circle id="타원_15" data-name="타원 15" cx="8" cy="8" r="8" fill="#eeca1a"/>
    </clipPath>
  </defs>
  <rect id="container" width="80" height="56" fill="none" opacity="0.1"/>
  <g id="꾸밈요소" clip-path="url(#clip-path)">
    <circle id="타원_14" data-name="타원 14" cx="12" cy="12" r="12" transform="translate(1.684 24)" fill="#d1ad1c" opacity="0.2"/>
    <circle id="타원_16" data-name="타원 16" cx="6" cy="6" r="6" transform="translate(0 20)" fill="#e3913f" opacity="0.2"/>
    <g id="마스크_그룹_1" data-name="마스크 그룹 1" transform="translate(72.014 28.7) rotate(45)" clip-path="url(#clip-path-2)">
      <path id="합치기_4" data-name="합치기 4" d="M18,19V0h1V19Zm-3,0V0h1V19Zm-3,0V0h1V19ZM9,19V0h1V19ZM6,19V0H7V19ZM3,19V0H4V19ZM0,19V0H1V19Z" transform="translate(0 -2)" fill="#fff"/>
      <path id="합치기_4_-_윤곽선" data-name="합치기 4 - 윤곽선" d="M19,19H18V0h1Zm-3,0H15V0h1Zm-3,0H12V0h1Zm-3,0H9V0h1ZM7,19H6V0H7ZM4,19H3V0H4ZM1,19H0V0H1Z" transform="translate(0 -2)" fill="#f2df64"/>
    </g>
  </g>
  <g id="icon" transform="translate(15 3)">
    <rect id="container-2" data-name="container" width="48" height="48" transform="translate(1 1)" fill="none"/>
    <path id="패스_2071" data-name="패스 2071" d="M46.31,10.821v13.77l-8.48,8.18a.725.725,0,0,0-.23.54v1.27H29.1v-6.41l9.56-9.36a2.017,2.017,0,0,1,2.84.04,1.874,1.874,0,0,1-.04,2.64l-4.9,4.79a.75.75,0,1,0,1.05,1.07l4.89-4.79a3.285,3.285,0,0,0,1.02-2.36,3.32,3.32,0,0,0-.95-2.4l-.07-.07c-.09-.09-.19-.17-.28-.25v-6.66a1.987,1.987,0,0,1,.6-1.44,2.009,2.009,0,0,1,1.45-.6,2.031,2.031,0,0,1,2.04,2.04" transform="translate(1.19)" fill="#bac8a6"/>
    <path id="패스_2072" data-name="패스 2072" d="M37.71,14.051a.753.753,0,0,1-.38.49l-.41.2c-5.87,3.01-9.78,4.82-11.64,5.37a.78.78,0,0,1-.22.03.768.768,0,0,1-.36-.09.743.743,0,0,1-.36-.47,9.358,9.358,0,0,0-2.16-4.39.746.746,0,0,1-.2-.86c.37-.87.72-1.76,1.04-2.66-.58.74-1.14,1.5-1.68,2.27a.75.75,0,0,1-.84.29,9.448,9.448,0,0,0-4.87.5.908.908,0,0,1-.23.03.768.768,0,0,1-.36-.09.724.724,0,0,1-.36-.46c-.73-2.67-1.29-9.83-1.5-12.53l-.07-.86a.751.751,0,0,1,.2-.59A.769.769,0,0,1,13.88,0c3.01.12,9.43,3.72,11.48,7.52,4.29-.23,10.53,3.4,12.25,5.93a.71.71,0,0,1,.1.6" transform="translate(1 1)" fill="#667c68"/>
    <path id="패스_2073" data-name="패스 2073" d="M29.11,34.581H40.08a.749.749,0,0,1,.75.75v12.79a.755.755,0,0,1-.75.75H26.2a.755.755,0,0,1-.75-.75V35.331a.749.749,0,0,1,.75-.75h2.91Z" transform="translate(1.19)" fill="#bac8a6"/>
    <path id="패스_2075" data-name="패스 2075" d="M37.61,33.311a.755.755,0,0,1,.22-.54l8.48-8.17V10.811a1.993,1.993,0,0,0-.6-1.43,2.036,2.036,0,0,0-3.48,1.44v6.66c.09.08.18.16.27.25a.3.3,0,0,1,.08.08,3.356,3.356,0,0,1-.07,4.75l-4.89,4.79a.75.75,0,0,1-1.05-1.07l4.9-4.79a1.883,1.883,0,0,0,0-2.68,2,2,0,0,0-2.8,0l-9.56,9.36v6.41h-1.5v-6.72a.741.741,0,0,1,.23-.54l9.79-9.59a3.52,3.52,0,0,1,3.1-.94v-5.97a3.54,3.54,0,0,1,7.08,0v14.12a.59.59,0,0,1-.02.14.9.9,0,0,1-.11.27,1.1,1.1,0,0,1-.1.11l-.1.09-8.37,8.07v.96h-1.5Z" transform="translate(1.19)" fill="#fff"/>
    <path id="패스_2076" data-name="패스 2076" d="M18.7,34.581H7.73a.749.749,0,0,0-.75.75v12.79a.755.755,0,0,0,.75.75H21.61a.755.755,0,0,0,.75-.75V35.331a.749.749,0,0,0-.75-.75H18.7Z" transform="translate(1)" fill="#bac8a6"/>
    <path id="패스_2077" data-name="패스 2077" d="M18.7,28.171v6.41H10.2v-1.27a.755.755,0,0,0-.22-.54L1.5,24.6V10.811a1.993,1.993,0,0,1,.6-1.43,2.036,2.036,0,0,1,3.48,1.44v6.66c-.09.08-.18.16-.27.25a.3.3,0,0,0-.08.08,3.356,3.356,0,0,0,.07,4.75l4.89,4.79a.75.75,0,1,0,1.05-1.07l-4.9-4.79a1.883,1.883,0,0,1,0-2.68,2,2,0,0,1,2.8,0Z" transform="translate(1)" fill="#bac8a6"/>
    <path id="패스_2078" data-name="패스 2078" d="M10.2,33.311a.755.755,0,0,0-.22-.54L1.5,24.6V10.811a1.993,1.993,0,0,1,.6-1.43,2.036,2.036,0,0,1,3.48,1.44v6.66c-.09.08-.18.16-.27.25a.3.3,0,0,0-.08.08,3.356,3.356,0,0,0,.07,4.75l4.89,4.79a.75.75,0,1,0,1.05-1.07l-4.9-4.79a1.883,1.883,0,0,1,0-2.68,2,2,0,0,1,2.8,0l9.56,9.36v6.41h1.5v-6.72a.741.741,0,0,0-.23-.54l-9.79-9.59a3.52,3.52,0,0,0-3.1-.94v-5.97a3.54,3.54,0,1,0-7.08,0v14.12a.59.59,0,0,0,.02.14.9.9,0,0,0,.11.27,1.1,1.1,0,0,0,.1.11l.1.09,8.37,8.07v.96h1.5Z" transform="translate(1)" fill="#fff"/>
  </g>
</svg>
