<svg xmlns="http://www.w3.org/2000/svg" xmlns:xlink="http://www.w3.org/1999/xlink" width="72" height="50" viewBox="0 0 72 50">
  <defs>
    <clipPath id="clip-path">
      <rect id="mask" width="71.701" height="43.021" fill="red" opacity="0.1"/>
    </clipPath>
    <clipPath id="clip-path-2">
      <circle id="타원_15" data-name="타원 15" cx="7.17" cy="7.17" r="7.17" fill="#eeca1a"/>
    </clipPath>
  </defs>
  <g id="ico_80_SKU_on" transform="translate(-0.503 3.705)">
    <rect id="container" width="72" height="50" transform="translate(0.503 -3.705)" fill="none" opacity="0.1"/>
    <g id="꾸밈요소" transform="translate(0.802 -0.216)" clip-path="url(#clip-path)">
      <circle id="타원_14" data-name="타원 14" cx="10.755" cy="10.755" r="10.755" transform="translate(1.509 21.51)" fill="#d1ad1c" opacity="0.2"/>
      <circle id="타원_16" data-name="타원 16" cx="5.378" cy="5.378" r="5.378" transform="translate(0 17.925)" fill="#e3913f" opacity="0.2"/>
      <g id="마스크_그룹_1" data-name="마스크 그룹 1" transform="translate(64.543 25.723) rotate(45)" clip-path="url(#clip-path-2)">
        <g id="합치기_4" data-name="합치기 4" transform="translate(0 -1.793)">
          <path id="패스_23600" data-name="패스 23600" d="M8.067,16.133h0V0h0ZM0,16.133H0V0H0Z" transform="translate(5.825 0.448)" fill="#fff"/>
          <path id="패스_23601" data-name="패스 23601" d="M17.029,17.029h-.9V0h.9Zm-2.689,0h-.9V0h.9Zm-2.689,0h-.9V0h.9Zm-2.689,0h-.9V0h.9Zm-2.689,0h-.9V0h.9Zm-2.689,0h-.9V0h.9Zm-2.689,0H0V0H.9Z" fill="#f2df64"/>
        </g>
      </g>
    </g>
    <g id="icon" transform="translate(15.702)">
      <path id="패스_2128" data-name="패스 2128" d="M35.428,16.657,34.7,17.894,33.032,20.74l-.747,1.275-.728,1.236-6.814-3.919v1.8L29.4,41.583H27.78l-.182-.834v-.01L21.312,37.05l4.811-3-.613-2.779L20.727,26.49l3.057-3.057L23.142,20.5H16.108l-.47,2.932L18.7,26.49l-4.849,4.849-.594,2.635,5.3,3.115-7,4.37-.029.125H10.032l4.648-20.45v-7.58l-8.51-4.9-.115-.067L4.685,7.8,3.8,7.295l-.3-.172A3.8,3.8,0,0,1,2.107,1.9,3.852,3.852,0,0,1,7.359.519Z" transform="translate(-0.066 0)" fill="#bac8a6"/>
      <path id="패스_2129" data-name="패스 2129" d="M23.885,22.893l-3.536,3.536-3.536-3.536Z" transform="translate(-0.701 -0.954)" fill="#bac8a6"/>
      <path id="패스_2130" data-name="패스 2130" d="M25.72,34.155l-5.242,3.277-5.625-3.316L20.267,28.7Z" transform="translate(-0.619 -1.196)" fill="#bac8a6"/>
      <path id="패스_2131" data-name="패스 2131" d="M26.735,43.233H14.613l5.874-3.67Z" transform="translate(-0.609 -1.649)" fill="#bac8a6"/>
      <path id="패스_2132" data-name="패스 2132" d="M38.869,27.979l.067-.038v-.01Zm4.494,13.943H38.869V27.979L36.78,29.33a.537.537,0,0,0,.23-.1l.364-.249V41.922h-9.66l-.182-.834v-.01L21.246,37.39l4.811-3-.613-2.779-4.782-4.782,3.057-3.057-.642-2.932H16.042l-.47,2.932,3.057,3.057-4.849,4.849-.594,2.635,5.3,3.115-7,4.37-.029.125H9.344V37.83a2.613,2.613,0,0,0-2.616-2.616H5.989V8.928l-1.37-.786H4.552V35.214H3.814A2.62,2.62,0,0,0,1.2,37.83v4.092H.719a.719.719,0,1,0,0,1.437H43.364a.719.719,0,1,0,0-1.437M16.109,22.277h7.072l-3.536,3.536ZM14.231,33.259l5.414-5.414L25.1,33.3l-5.242,3.277ZM14,41.922l5.874-3.67,6.248,3.67Z" transform="translate(0 -0.339)" fill="#bac8a6"/>
      <path id="패스_2133" data-name="패스 2133" d="M28.031,41.641v-.01l-6.287-3.689,4.811-3-.613-2.779L21.16,27.381l3.057-3.057-.642-2.932H16.541l-.47,2.932,3.057,3.057L14.279,32.23l-.594,2.635,5.3,3.115-7,4.37-.029.125H14.5l5.874-3.67,6.248,3.67h1.591ZM16.608,22.829H23.68l-3.536,3.536Zm3.747,14.3L14.73,33.812,20.144,28.4,25.6,33.85Z" transform="translate(-0.499 -0.892)" fill="#39393a"/>
      <path id="패스_2134" data-name="패스 2134" d="M44.082,44.111a.718.718,0,0,1-.719.719H.719a.719.719,0,1,1,0-1.437H43.364a.712.712,0,0,1,.719.719" transform="translate(0 -1.809)" fill="#667c68"/>
      <path id="패스_2135" data-name="패스 2135" d="M40.536,28.708l-.067.048.067-.038,2.856-1.936Zm-.067.057v-.01L38.38,30.107Z" transform="translate(-1.6 -1.116)" fill="#bac8a6"/>
      <path id="패스_2136" data-name="패스 2136" d="M43.894,20.083l-.46,5.721a.737.737,0,0,1-.316.537l-2.856,1.926-.067.048-2.089,1.351a.543.543,0,0,1-.173.029.715.715,0,0,1-.364-.1l-5.4-3.115a.7.7,0,0,1-.335-.441A.723.723,0,0,1,31.9,25.5l.92-1.572.728-1.236.747-1.275,1.667-2.846.728-1.236.46-.786a.709.709,0,0,1,.977-.259L43.539,19.4a.719.719,0,0,1,.355.68" transform="translate(-1.326 -0.675)" fill="#667c68"/>
      <rect id="사각형_874" data-name="사각형 874" width="44.082" height="43.02" transform="translate(0 0.001)" fill="none"/>
    </g>
  </g>
</svg>
